<?xml version="1.0" encoding="iso-8859-1"?>
<!-- Generator: Adobe Illustrator 19.0.0, SVG Export Plug-In . SVG Version: 6.00 Build 0)  -->
<svg version="1.1" id="Layer_1" xmlns="http://www.w3.org/2000/svg" xmlns:xlink="http://www.w3.org/1999/xlink" x="0px" y="0px"
	 viewBox="0 0 511.999 511.999" style="enable-background:new 0 0 511.999 511.999;" xml:space="preserve">
<ellipse style="fill:#FFDA44;" cx="354.625" cy="354.833" rx="149.546" ry="149.295"/>
<path style="fill:#FFFFFF;" d="M226.475,354.837c0-78.86,61.25-143.431,138.849-148.908c-3.534-0.249-7.1-0.384-10.697-0.384
	c-82.592,0-149.547,66.84-149.547,149.292s66.954,149.292,149.547,149.292c3.597,0,7.164-0.135,10.697-0.384
	C287.725,498.269,226.475,433.697,226.475,354.837z"/>
<path style="fill:#EDC10C;" d="M354.626,205.545c-5.556,0-11.039,0.312-16.438,0.902c74.857,8.172,133.109,71.485,133.109,148.391
	s-58.252,140.219-133.109,148.39c5.399,0.59,10.881,0.902,16.438,0.902c82.592,0,149.547-66.84,149.547-149.292
	C504.173,272.386,437.218,205.545,354.626,205.545z"/>
<ellipse style="fill:#FFFFFF;" cx="284.762" cy="350.481" rx="41.48" ry="41.409"/>
<path style="fill:#E6E6E6;" d="M284.765,309.069c-3.705,0-7.293,0.492-10.711,1.402c17.716,4.715,30.769,20.837,30.769,40.009
	c0,19.171-13.053,35.293-30.769,40.009c3.418,0.91,7.006,1.402,10.711,1.402c22.908,0,41.48-18.54,41.48-41.409
	C326.244,327.609,307.674,309.069,284.765,309.069z"/>
<ellipse style="fill:#64C37D;" cx="361.179" cy="426.762" rx="18.557" ry="18.525"/>
<path style="fill:#FFFFFF;" d="M353.364,426.759c0-8.365,5.556-15.428,13.185-17.73c-1.701-0.513-3.504-0.795-5.373-0.795
	c-10.249,0-18.556,8.294-18.556,18.525c0,10.231,8.309,18.526,18.556,18.526c1.869,0,3.672-0.283,5.373-0.796
	C358.92,442.188,353.364,435.125,353.364,426.759z"/>
<path style="fill:#49AA60;" d="M361.176,408.234c-2.448,0-4.781,0.485-6.922,1.345c6.817,2.741,11.635,9.393,11.635,17.18
	c0,7.787-4.818,14.439-11.635,17.18c2.141,0.86,4.473,1.346,6.922,1.346c10.249,0,18.557-8.294,18.557-18.526
	C379.733,416.527,371.424,408.234,361.176,408.234z"/>
<ellipse style="fill:#D80027;" cx="404.835" cy="295.991" rx="29.473" ry="29.421"/>
<path style="fill:#FFFFFF;" d="M387.805,295.992c0-14.119,9.964-25.91,23.254-28.76c-2.006-0.43-4.085-0.663-6.219-0.663
	c-16.277,0-29.473,13.173-29.473,29.423c0,16.25,13.195,29.423,29.473,29.423c2.134,0,4.213-0.232,6.219-0.662
	C397.768,321.901,387.805,310.111,387.805,295.992z"/>
<path style="fill:#BC052F;" d="M404.839,266.57c-2.628,0-5.173,0.348-7.599,0.992c12.594,3.346,21.874,14.804,21.874,28.43
	s-9.28,25.084-21.874,28.43c2.424,0.644,4.971,0.993,7.599,0.993c16.277,0,29.473-13.173,29.473-29.423
	C434.311,279.743,421.116,266.57,404.839,266.57z"/>
<path style="fill:#FFDA44;" d="M173.803,270.624c3.276-12.159-2.848-28.213,3.358-38.857c6.294-10.792,23.4-13.471,32.227-22.228
	c8.823-8.753,11.556-25.761,22.426-32c10.711-6.148,26.842-0.027,39.074-3.271c11.819-3.134,36.032-17.106,36.032-17.106
	c0-82.452-66.955-149.292-149.547-149.292S7.827,74.71,7.827,157.162s66.955,149.292,149.547,149.292
	C157.374,306.454,170.636,282.378,173.803,270.624z"/>
<g>
	<path style="fill:#FFFFFF;" d="M29.222,157.162c0-78.86,61.251-143.432,138.849-148.908c-3.534-0.249-7.1-0.384-10.697-0.384
		C74.782,7.87,7.828,74.71,7.828,157.162c0,82.451,66.954,149.292,149.547,149.292c0,0,0.285-0.519,0.771-1.419
		C85.315,295.003,29.222,232.627,29.222,157.162z"/>
	<path style="fill:#FFFFFF;" d="M259.625,175.257c3.232,0.082,6.395-0.017,9.368-0.57
		C265.744,174.601,262.579,174.694,259.625,175.257z"/>
</g>
<path style="fill:#EDC10C;" d="M157.374,7.87c-5.556,0-11.039,0.312-16.438,0.902c74.857,8.172,133.109,71.485,133.109,148.39
	c0,0-24.213,13.971-36.032,17.107c-12.232,3.244-28.362-2.877-39.074,3.271c-10.87,6.239-13.603,23.246-22.426,32
	c-8.827,8.757-25.933,11.435-32.227,22.228c-6.208,10.643-0.083,26.698-3.358,38.857c-2.455,9.11-10.969,25.616-14.677,32.583
	c10.041,2.122,20.45,3.247,31.125,3.247c0,0,13.262-24.076,16.428-35.83c3.276-12.159-2.848-28.213,3.359-38.857
	c6.294-10.792,23.401-13.472,32.227-22.228c8.823-8.753,11.556-25.761,22.426-32c10.711-6.148,26.842-0.027,39.074-3.271
	c11.819-3.134,36.032-17.107,36.032-17.107C306.921,74.71,239.966,7.87,157.374,7.87z"/>
<path style="fill:#64C37D;" d="M177.023,215.984c-7.247-7.247-18.986-7.257-26.221-0.022c-7.235,7.235-7.224,18.974,0.022,26.221
	c6.438,6.438,16.422,7.165,23.643,2.174l7.736-18.352C181.583,222.336,179.857,218.817,177.023,215.984z"/>
<g>
	<path style="fill:#FFFFFF;" d="M161.554,242.183c-7.247-7.247-7.257-18.986-0.022-26.221c2.234-2.234,4.9-3.773,7.729-4.626
		c-6.327-1.906-13.465-0.367-18.458,4.626c-7.235,7.235-7.224,18.974,0.022,26.221c5.01,5.01,12.163,6.545,18.494,4.635
		C166.479,245.962,163.799,244.427,161.554,242.183z"/>
	<circle style="fill:#FFFFFF;" cx="87.511" cy="152.802" r="41.225"/>
</g>
<path style="fill:#E6E6E6;" d="M87.514,111.578c-3.942,0-7.75,0.565-11.36,1.599c17.24,4.934,29.864,20.8,29.864,39.627
	c0,18.826-12.623,34.692-29.864,39.626c3.61,1.033,7.418,1.599,11.36,1.599c22.767,0,41.225-18.457,41.225-41.225
	C128.738,130.035,110.281,111.578,87.514,111.578z"/>
<ellipse style="fill:#D80027;" cx="207.584" cy="98.312" rx="29.473" ry="29.421"/>
<path style="fill:#FFFFFF;" d="M190.553,98.317c0-14.119,9.964-25.91,23.254-28.76c-2.006-0.43-4.085-0.662-6.219-0.662
	c-16.277,0-29.473,13.173-29.473,29.423s13.195,29.423,29.473,29.423c2.134,0,4.213-0.232,6.219-0.662
	C200.517,124.226,190.553,112.436,190.553,98.317z"/>
<path style="fill:#BC052F;" d="M207.588,68.895c-2.628,0-5.173,0.348-7.599,0.993c12.594,3.346,21.874,14.804,21.874,28.43
	s-9.28,25.084-21.874,28.43c2.424,0.644,4.971,0.993,7.599,0.993c16.277,0,29.473-13.173,29.473-29.423
	S223.865,68.895,207.588,68.895z"/>
<path d="M354.626,197.717c-86.776,0-157.374,70.483-157.374,157.12c0,25.021,6.039,49.919,17.465,72.006l13.904-7.194
	c-10.427-20.156-15.713-41.961-15.713-64.812c0-78.004,63.576-141.465,141.719-141.465s141.719,63.461,141.719,141.465
	S432.77,496.302,354.626,496.302c-44.647,0-85.781-20.369-112.855-55.885l-12.451,9.491c30.06,39.433,75.732,62.049,125.305,62.049
	c86.777,0,157.374-70.483,157.374-157.12S441.403,197.717,354.626,197.717z"/>
<path d="M284.765,399.715c27.188,0,49.308-22.088,49.308-49.238c0-27.15-22.119-49.237-49.308-49.237
	c-27.188,0-49.308,22.087-49.308,49.237C235.457,377.627,257.577,399.715,284.765,399.715z M284.765,316.897
	c18.556,0,33.653,15.065,33.653,33.582c0,18.518-15.096,33.583-33.653,33.583s-33.653-15.065-33.653-33.583
	C251.112,331.961,266.208,316.897,284.765,316.897z"/>
<path d="M334.791,426.759c0,14.531,11.836,26.352,26.384,26.352c14.549,0,26.385-11.822,26.385-26.352
	c0-14.531-11.836-26.352-26.385-26.352C346.627,400.406,334.791,412.228,334.791,426.759z M371.906,426.759
	c0,5.899-4.813,10.697-10.73,10.697s-10.729-4.799-10.729-10.697c0-5.899,4.812-10.698,10.729-10.698
	C367.091,416.061,371.906,420.86,371.906,426.759z"/>
<path d="M442.139,295.991c0-20.54-16.733-37.249-37.3-37.249s-37.299,16.71-37.299,37.249c0,20.54,16.732,37.25,37.299,37.25
	S442.139,316.532,442.139,295.991z M383.194,295.991c0-11.907,9.71-21.594,21.644-21.594c11.936,0,21.645,9.687,21.645,21.594
	c0,11.908-9.71,21.595-21.645,21.595C392.904,317.588,383.194,307.901,383.194,295.991z"/>
<path d="M182.35,252.951c-0.39-6.81-0.759-13.242,1.574-17.241c2.403-4.119,8.261-7.024,14.463-10.097
	c5.808-2.878,11.814-5.855,16.515-10.518c4.702-4.664,7.711-10.634,10.62-16.407c3.104-6.159,6.035-11.976,10.19-14.361
	c4.047-2.324,10.524-1.943,17.385-1.545c6.534,0.383,13.287,0.776,19.797-0.95c12.465-3.304,35.369-16.409,37.94-17.891l3.915-2.26
	v-4.52c0-25.663-6.336-51.129-18.326-73.647l-13.818,7.357c10.081,18.936,15.721,40.195,16.415,61.757
	c-8.28,4.58-22.703,12.101-30.138,14.072c-4.09,1.085-9.327,0.778-14.872,0.455c-8.436-0.496-17.999-1.053-26.091,3.593
	c-8.228,4.723-12.557,13.314-16.376,20.893c-2.455,4.869-4.773,9.468-7.667,12.339c-2.899,2.876-7.534,5.173-12.441,7.605
	c-1.834,0.909-3.726,1.848-5.609,2.863c-0.954-1.421-2.034-2.768-3.268-4.001c-10.286-10.286-27.015-10.298-37.291-0.021
	c-10.275,10.276-10.264,27.005,0.022,37.291c5.114,5.113,11.875,7.743,18.679,7.743c0.945,0,1.89-0.069,2.833-0.171
	c0.276,4.963,0.436,9.611-0.557,13.297c-1.995,7.41-9.128,21.68-13.506,29.964C76.73,296.103,15.655,233.618,15.655,157.162
	c0-78.004,63.575-141.465,141.719-141.465c44.894,0,86.165,20.549,113.231,56.379l12.492-9.436
	c-14.364-19.015-33.161-34.767-54.361-45.552C206.503,5.777,182.494,0.042,157.374,0.042C70.598,0.042,0,70.526,0,157.162
	s70.598,157.12,157.374,157.12H162l2.231-4.051c0.56-1.017,13.756-25.048,17.131-37.57
	C183.108,266.175,182.723,259.453,182.35,252.951z M156.36,236.648c-4.184-4.183-4.194-10.98-0.022-15.152
	c2.016-2.017,4.699-3.127,7.554-3.127c0.003,0,0.006,0,0.009,0c2.865,0.002,5.559,1.121,7.587,3.15
	c0.703,0.702,1.291,1.49,1.768,2.338c-1.052,1.216-2.016,2.529-2.855,3.967c-2.129,3.65-3.177,7.598-3.65,11.607
	C163.134,240.41,159.149,239.437,156.36,236.648z"/>
<path d="M38.462,152.803c0,27.047,22.004,49.052,49.052,49.052s49.052-22.005,49.052-49.052s-22.004-49.052-49.052-49.052
	S38.462,125.755,38.462,152.803z M120.911,152.803c0,18.415-14.982,33.397-33.397,33.397s-33.397-14.982-33.397-33.397
	s14.982-33.397,33.397-33.397S120.911,134.388,120.911,152.803z"/>
<path d="M170.287,98.316c0,20.54,16.732,37.25,37.299,37.25s37.3-16.711,37.3-37.25s-16.733-37.249-37.3-37.249
	S170.287,77.776,170.287,98.316z M229.232,98.316c0,11.908-9.71,21.595-21.645,21.595c-11.935,0-21.644-9.687-21.644-21.595
	c0-11.907,9.71-21.594,21.644-21.594C219.523,76.722,229.232,86.409,229.232,98.316z"/>
<g>
	<rect x="321.008" y="138.984" style="fill:#FFDA44;" width="11.864" height="11.864"/>
	
		<rect x="291.116" y="187.673" transform="matrix(0.7071 -0.7071 0.7071 0.7071 -49.8966 266.7507)" style="fill:#FFDA44;" width="11.864" height="11.865"/>
	
		<rect x="220.145" y="224.277" transform="matrix(0.7071 0.7071 -0.7071 0.7071 228.999 -92.4342)" style="fill:#FFDA44;" width="11.865" height="11.865"/>
	<rect x="342.925" y="171.723" style="fill:#FFDA44;" width="11.864" height="11.864"/>
	
		<rect x="99.011" y="317.374" transform="matrix(0.7071 0.7071 -0.7071 0.7071 259.3494 20.4879)" style="fill:#FFDA44;" width="11.865" height="11.865"/>
	<rect x="202.689" y="261.092" style="fill:#FFDA44;" width="11.864" height="11.864"/>
	<rect x="143.2" y="358.653" style="fill:#FFDA44;" width="11.864" height="11.864"/>
	
		<rect x="138.174" y="328.008" transform="matrix(-0.7071 -0.7071 0.7071 -0.7071 9.8742 671.9708)" style="fill:#FFDA44;" width="11.865" height="11.865"/>
	
		<rect x="177.321" y="312.907" transform="matrix(0.7071 0.7071 -0.7071 0.7071 279.1271 -36.1932)" style="fill:#FFDA44;" width="11.864" height="11.865"/>
</g>
<g>
</g>
<g>
</g>
<g>
</g>
<g>
</g>
<g>
</g>
<g>
</g>
<g>
</g>
<g>
</g>
<g>
</g>
<g>
</g>
<g>
</g>
<g>
</g>
<g>
</g>
<g>
</g>
<g>
</g>
</svg>
