<?xml version="1.0" encoding="utf-8"?>

<!DOCTYPE svg PUBLIC "-//W3C//DTD SVG 1.1//EN" "http://www.w3.org/Graphics/SVG/1.1/DTD/svg11.dtd">
<svg version="1.1" id="Layer_1" xmlns="http://www.w3.org/2000/svg" xmlns:xlink="http://www.w3.org/1999/xlink" x="0px" y="0px"
	 viewBox="0 0 1680.91 1650.58" enable-background="new 0 0 1680.91 1650.58" xml:space="preserve">
<g>
	<path fill="#8C4E59" stroke="#8C4E59" stroke-width="0.5" d="M765.309,51.304c4.836-1.155,9.837-0.634,14.768-0.721
		c40.822-0.009,81.644,0.026,122.466-0.017c3.516-0.087,6.598,1.832,9.776,3.082c23.841,10.01,47.664,20.081,71.521,30.057
		c3.126,1.242,5.6,3.577,8.152,5.695c15.732,12.953,31.48,25.889,47.221,38.825c3.412,2.908,7.276,5.409,9.967,9.073
		c15.159,20.142,30.352,40.267,45.554,60.374c3.065,4.028,5.305,8.595,7.935,12.91c5.921,10.002,11.747,20.055,17.642,30.074
		c6.841,12.007,14.533,23.563,20.298,36.16c12.441,25.23,24.752,50.52,37.202,75.741c1.641,3.395,2.136,7.18,2.961,10.826
		c6.807,32.192,13.882,64.333,20.646,96.525c0.955,9.481,1.111,19.031,1.78,28.537c0.443,11.46,1.354,22.903,1.728,34.372
		c0.139,7.284,1.702,14.429,2.344,21.67c2.57,20.307,4.844,40.649,7.614,60.929c5.513,17.971,11.799,35.717,17.477,53.654
		c1.841,6.503,5.895,12.016,8.934,17.971c5.912,10.601,11.807,21.21,17.728,31.802c7.857,13.804,14.959,28.06,23.901,41.213
		c9.29,14.777,19.456,29.015,27.773,44.373c8.482,14.959,16.869,29.97,25.412,44.894c3.047,4.844,3.134,10.766,4.523,16.174
		c2.578,11.964,4.749,24.005,7.449,35.934c0.512,2.205,0.695,4.523,0.095,6.755c-2.648,10.974-5.157,21.991-7.727,32.991
		c-1.476,6.807-4.02,13.318-6.112,19.951c-3.516,10.557-7.067,21.114-10.54,31.698c0.373,0.122,1.12,0.382,1.502,0.512
		c-0.616,1.641-0.92,3.429-0.408,5.166c1.71,7.397,3.36,14.829,5.687,22.078c4.584,14.629,9.099,29.293,13.387,44.017
		c0.625,2.231,1.884,4.315,3.89,5.591c6.19,4.211,12.163,8.708,18.301,12.997c8.109,6.06,16.834,11.33,24.431,18.058
		c4.567,4.714,8.526,9.975,13.066,14.724c9.602,11.208,19.968,21.739,29.527,32.982c15.063,20.246,30.074,40.544,45.137,60.808
		c3.178,4.011,5.365,8.638,7.597,13.222c3.568,6.407,6.564,13.11,9.897,19.656c3.03,6.659,6.781,12.953,9.932,19.56
		c1.441,2.926,3.117,5.947,2.969,9.342c-0.217,11.017-0.313,22.043-1.103,33.043c-0.182,8.178-1.815,16.487-0.234,24.604
		c2.605,7.284,4.957,14.672,7.414,22.026c1.363,4.888,4.289,9.55,3.811,14.803c-1.78,4.48-1.814,9.342-2.466,14.065
		c-2.639,19.048-5.583,38.053-8.022,57.127c-1.832,14.047-5.817,27.669-8.664,41.525c-2.223,10.688-4.983,21.253-7.136,31.967
		c-0.616,2.908-1.563,5.73-2.405,8.595c-0.721-4.862-0.573-9.793-0.981-14.664c-1.537-12.172-1.971-24.578-0.156-36.733
		c0.894-6.937,0.443-13.978,1.589-20.888c1.268-8.135,0.478-16.391,1.285-24.561c1.007-11.208,1.337-22.451,1.354-33.694
		c0.078-3.586-1.849-6.702-3.108-9.915c-4.054-10.132-8.222-20.211-12.241-30.352c-5.626-12.276-11.26-24.544-17.103-36.716
		c-1.485-3.525-4.202-6.26-7.206-8.508c-3.629-2.7-6.807-5.947-10.418-8.647c-2.031-1.432-2.578,1.728-2.986,3.082
		c-3.169,13.908-6.32,27.834-9.211,41.812c-0.755,3.377-1.103,7.076-3.317,9.915c-3.49,4.558-7.675,8.526-11.26,13.005
		c-7.302,8.89-14.82,17.607-22.2,26.402c-9.185,6.885-19.126,12.693-28.563,19.213c-6.781,4.15-12.641,9.975-20.168,12.771
		c2.344-4.454,7.241-6.598,10.349-10.436c4.419-4.844,10.904-7.657,14.264-13.474c4.957-10.253,9.402-20.758,13.995-31.185
		c2.683-6.876,3.629-14.247,5.687-21.305c1.832-9.003,4.688-17.763,6.251-26.827c0.642-3.811-0.182-7.657-0.929-11.382
		c-1.059-4.844-1.884-9.732-2.787-14.594c-0.486-3.273-2.908-5.669-4.723-8.248c-1.945-2.717-3.898-5.443-6.39-7.683
		c-2.874,4.87-4.28,10.384-6.572,15.514c-3.108,6.841-5.86,13.848-8.638,20.837c-4.011,12.58-7.605,25.29-11.538,37.896
		c-1.155,3.664-4.141,6.268-6.381,9.272c-4.888,6.372-10.123,12.458-15.028,18.813c-3.681,4.914-9.394,7.527-14.386,10.852
		c-10.531,6.537-20.923,13.292-31.506,19.743c-2.744,1.91-6.13,2.032-9.333,1.988c-7.849-0.061-15.601,1.32-23.424,1.528
		c-4.653,0.148-9.35-0.104-13.934,0.842c-5.174,1.068-10.47,0.755-15.705,0.669c0.304-0.252,0.903-0.755,1.207-1.016
		c9.064-2.509,18.379-4.028,27.443-6.546c7.614-1.936,14.447-5.973,21.826-8.586c8.135-3.785,17.485-5.904,23.927-12.545
		c8.691-8.404,17.928-16.209,26.636-24.587c1.598-1.537,2.301-3.69,2.969-5.73c2.335-7.562,4.367-15.219,6.885-22.72
		c0.816-2.44,1.502-5.122,0.538-7.614c-2.474-7.336-5.2-14.585-7.501-21.965c-1.979-6.043-3.516-12.25-6.32-17.972
		c-3.907-8.17-8.552-15.949-12.32-24.179c-2.387-5.391-5.461-10.462-7.423-16.027c-2.24-5.825-3.933-11.859-6.642-17.485
		c-2.223-4.697-2.5-10.332-5.956-14.386c-3.351,4.193-5.279,9.272-8.291,13.709c-4.089,7.206-8.578,14.186-12.415,21.54
		c-3.49,6.425-8.057,12.155-12.137,18.206c-4.541,6.182-8.821,12.554-13.413,18.709c-1.12,1.485-2.613,2.63-4.167,3.638
		c-10.132,6.511-19.821,13.691-30.031,20.073c-18.874,1.78-37.419,6.329-56.363,7.345c-12.528,1.259-25.091,2.075-37.619,3.23
		c-8.422,1.016-16.799-0.807-25.177-1.354c-10.531-0.938-21.071-1.684-31.585-2.744c6.807-2.561,14.056-3.707,21.036-5.713
		c20.941-5.27,41.812-10.809,62.692-16.339c3.386-1.016,7.284-1.311,9.941-3.907c5.131-4.706,10.305-9.376,15.541-13.969
		c4.575-3.924,6.381-9.906,9.489-14.889c2.344-4.853,5.747-9.229,7.388-14.386c1.485-10.019,1.997-20.159,3.169-30.213
		c1.467-9.376-2.257-18.406-3.455-27.591c-2.283-9.75-2.752-20.081-7.241-29.188c-3.117-7.302-6.268-14.586-9.342-21.904
		c-1.45-3.369-2.579-6.963-4.984-9.793c-9.246-11.009-18.397-22.095-27.652-33.095c-2.405-2.665-4.254-5.747-5.817-8.96
		c-6.529-12.797-13.5-25.368-19.855-38.252c-7.701-17.19-15.445-34.363-23.163-51.536c-2.709-7.84-4.115-16.07-6.251-24.075
		c-1.016-5.14-3.308-10.21-2.613-15.549c1.068-8.586,1.545-17.225,2.665-25.802c1.415-9.75-1.606-19.326-2.674-28.945
		c-1.207-11.816-5.305-23.016-8.126-34.476c-0.842-2.709-1.059-5.964-3.516-7.779c-4.922-4.133-10.132-7.918-14.881-12.25
		c1.545-5.956,2.362-12.302,5.73-17.581c4.402-7.197,8.717-14.438,13.005-21.696c7.423-13.24,14.203-26.827,21.653-40.058
		c5.305-7.944,11.035-15.593,16.495-23.432c2.57-3.82,5.921-7.258,7.345-11.738c3.039-9.368,6.129-18.709,9.211-28.06
		c2.396-6.971,3.75-14.238,5.556-21.366c2.283-10.149,4.931-20.22,7.041-30.404c1.632-11.79,3.065-23.606,4.593-35.405
		c1.841-13.023,2.457-26.176,3.516-39.277c0.399-7.805,2.214-15.679,0.651-23.458c-1.667-9.732-3.073-19.508-4.654-29.249
		c-0.773-4.61-1.077-9.35-2.752-13.752c-3.855-10.062-7.675-20.125-11.538-30.169c-2.518-6.103-3.646-12.623-5.322-18.961
		c-2.301-9.272-4.575-18.544-6.937-27.791c-5.747-18.371-13.353-36.151-18.128-54.826c-8.387-29.449-16.357-59.019-24.188-88.625
		c-0.616-2.587-1.745-5.009-3.23-7.197c-5.062-7.692-9.975-15.48-14.994-23.198c-2.726-4.436-7.206-7.275-10.983-10.713
		c-10.574-9.125-21.218-18.171-31.802-27.296c-3.143-2.674-6.095-5.765-9.993-7.336c-12.979-5.487-25.889-11.139-38.834-16.704
		c-3.733-1.571-7.388-3.516-11.425-4.167c-18.067-3.004-36.125-6.069-54.166-9.22c-4.758-0.92-9.463,0.66-14.143,1.337
		c-13.926,2.214-27.817,4.636-41.751,6.798c-3.846,0.53-7.249,2.483-10.74,4.02c-11.642,5.157-23.276,10.323-34.91,15.462
		c-3.889,1.754-8.092,3.108-11.278,6.069c-10.766,9.498-21.878,18.605-32.618,28.121c-7.145,7.953-13.596,16.513-20.533,24.657
		c-2.049,1.979-1.65,4.966-1.771,7.553c-0.13,13.891-1.181,27.773-0.755,41.664c1.841,15.046,3.95,30.065,5.678,45.12
		c-0.087,22.278-0.868,44.555-1.129,66.833c-3.143,23.372-6.32,46.743-9.689,70.08c-4.68,17.442-9.62,34.823-14.429,52.239
		c-3.195,10.071-3.924,20.68-5.609,31.072c-3.091,20.046-6.069,40.119-9.073,60.183c-0.799,5.496-2.04,10.991-1.65,16.582
		c0.634,14.69,1.736,29.353,2.24,44.052c0.634,6.659,0.573,13.379,1.354,20.012c2.77,5.461,6.555,10.349,9.706,15.61
		c5.036,7.953,10.184,15.844,15.228,23.797c2.014,3.178,4.471,6.216,5.357,9.958c4.185,25.212,9.012,50.32,13.405,75.489
		c0.512,3.542-0.33,7.084-0.686,10.601c-2.778,23.814-5.721,47.62-8.387,71.443c-2.622,22.764-4.766,45.571-7.293,68.335
		c-1.467,7.475-3.612,14.803-5.339,22.226c-5.695,22.972-11.295,45.971-17.034,68.934c-1.493,5.278-2.214,10.713-2.917,16.148
		c-1.745,13.223-3.638,26.428-5.435,39.65c-0.807,3.855,1.493,7.275,2.908,10.679c7.718,17.485,15.358,35.005,23.033,52.517
		c1.511,3.49,4.176,6.26,6.546,9.185c5.088,6.19,10.114,12.432,15.219,18.614c1.962,2.327,3.638,5.131,6.494,6.494
		c16.886,7.996,33.729,16.088,50.607,24.11c13.075,5.886,25.273,13.474,37.888,20.246c7.831,4.315,15.636,8.699,23.502,12.962
		c9.142,4.471,18.31,8.89,27.469,13.327c3.221,1.597,6.72,2.839,9.376,5.365c6.564,6.182,13.17,12.328,19.829,18.414
		c4.245,3.612,6.051,9.073,8.899,13.709c5.365,9.941,11.174,19.656,16.252,29.753c-10.731-8.326-21.071-17.147-31.628-25.672
		c-3.125-2.422-6.963-3.586-10.496-5.227c-17.624-7.883-35.327-15.593-52.951-23.467c-7.189-3.36-14.907-5.313-22.373-7.901
		c-10.357-3.177-20.559-6.824-30.925-9.941c6.52,6.789,13.613,13.023,20.342,19.621c5.192,4.627,9.706,10.097,15.61,13.865
		c10.149,6.329,20.185,12.858,30.326,19.204c3.169,1.945,5.383,5.001,7.796,7.77c6.581,7.614,13.266,15.141,19.882,22.738
		c2.865,3.464,6.32,6.529,8.465,10.557c6.468,12.91,12.415,26.098,19.126,38.886c-2.839,8.803-3.013,18.206-5.183,27.148
		c-2.474,4.541-6.208,8.239-9.194,12.45c-3.586,4.176-6.182,9.272-10.653,12.641c1.172-6.399,2.674-12.719,4.324-18.996
		c1.051-3.49-1.406-6.642-2.639-9.715c-3.603-6.52-4.541-14.837-10.774-19.595c-4.966-4.028-10.01-7.944-14.942-11.998
		c-3.351-2.752-6.407-6.077-10.566-7.579c-15.697-5.53-30.907-12.424-46.795-17.39c-19.335-4.08-38.66-8.196-57.995-12.276
		c-18.362-3.325-35.413-11.252-53.255-16.409c-5.878-1.502-10.522-5.574-15.523-8.751c-10.036-6.772-20.185-13.361-30.169-20.203
		c-3.846-2.474-7.397-5.496-11.651-7.232c-0.894,4.567-1.771,9.159-1.893,13.839c-0.313,3.968,0.391,8.387-2.075,11.842
		c-4.61,6.919-9.272,13.822-14.204,20.524c-7.753,12.085-16.443,23.502-24.752,35.205c-4.358,5.522-7.979,11.59-12.467,17.025
		c-4.732,6.034-8.951,12.441-13.561,18.562c-5.47,7.909-9.185,16.843-13.917,25.186c-7.901,13.96-15.541,28.155-20.932,43.314
		c-4.601,10.002-8.326,20.376-12.806,30.43c-12.241,10.071-23.476,21.392-36.42,30.595c-9.967,7.727-19.994,15.428-30.465,22.469
		c6.911-15.176,18.223-28.138,23.623-44.043c2.691-7.162,5.253-14.369,8.039-21.496c2.023-6.112,5.114-11.903,6.086-18.336
		c3.151-18.735,6.425-37.454,9.68-56.172c0.547-3.646-0.842-7.171-1.545-10.688c-2.362-10.87-4.94-21.696-7.284-32.557
		c-0.66-2.674-0.781-5.678-2.674-7.822c-5.869-6.841-12.32-13.136-18.623-19.56c-4.636-4.74-8.621-10.166-13.891-14.247
		c-0.425,4.263,1.146,8.369,1.736,12.554c0.964,6.19,2.778,12.294,3.108,18.579c-0.92,8.63-2.44,17.207-3.473,25.837
		c-1.919,11.59-2.9,23.337-5.122,34.875c-4.558,15.81-9.75,31.428-14.256,47.255c-6.807,19.465-13.622,38.912-20.672,58.29
		c-1.32,3.464-2.144,7.18-4.263,10.297c-2.37-8.421-3.021-17.216-5.452-25.612c-1.077-9.732-3.95-19.161-4.732-28.919
		c-1.294-10.835-2.587-21.67-3.716-32.522c-1.259-6.294-0.972-12.78-2.448-19.031c-1.268-9.672-3.351-19.204-4.497-28.885
		c-0.807-5.053-2.092-10.149-1.406-15.289c3.091-19.065,5.687-38.209,8.795-57.274c0.564-4.61,2.188-9.238,1.103-13.9
		c-1.337-6.798-0.443-13.83-2.24-20.541c-3.073-0.2-5.452,2.075-7.944,3.525c-6.103,3.707-11.938,7.848-18.154,11.399
		c-6.685,4.028-12.893,9.047-20.168,11.99c-15.324,3.299-30.916,5.148-46.274,8.291c-3.16,0.668-6.494,0.486-9.507-0.721
		c-9.333-3.698-19.144-6.199-28.225-10.514c4.627-1.571,9.489-2.257,14.351-2.509c5.244-0.2,10.375-1.45,15.619-1.719
		c4.949-0.287,9.802-1.424,14.759-1.754c5.478-0.512,11.165-0.53,16.296-2.77c6.121-2.257,11.503-6.016,17.39-8.76
		c8.387-4.306,17.164-7.883,25.125-12.971c8.248-5.088,16.496-10.158,24.709-15.306c5.391-3.421,11.755-6.025,15.193-11.729
		c6.433-8.083,12.163-16.687,18.597-24.769c3.082-4.775,7.918-8.734,8.769-14.655c6.763-35.014,13.188-70.097,20.837-104.938
		c8.092-39.537,16.73-78.953,24.821-118.49c1.094-5.8,2.848-11.495,3.369-17.381c1.65-8.803,1.945-17.815,3.082-26.697
		c1.754-11.512-0.339-23.094-0.625-34.632c-1.085-11.825-0.946-23.754-2.483-35.518c-5.808-17.529-11.764-35.023-17.72-52.508
		c-2.084-5.47-3.342-11.269-5.921-16.53c-6.433,20.055-12.979,40.058-19.508,60.079c-1.971,6.694-4.584,13.205-6.268,19.977
		c-0.26,9.541,0.781,19.083,1.085,28.624c0.278,11.009,1.302,21.983,1.059,33c0.148,12.519-0.321,25.056,0.226,37.567
		c-0.113,5.114,0.547,10.418-1.389,15.289c-4.054,10.514-9.003,20.646-13.17,31.107c-0.903,2.813-3.698,4.054-6.216,5.096
		c-5.652,2.37-11.182,5.001-16.825,7.397c-6.077,2.596-11.616,6.702-18.284,7.701c4.515-4.844,10.401-8.013,15.393-12.293
		c2.118-1.901,5.044-3.073,6.468-5.635c3.143-8.256,5.009-16.921,7.727-25.316c1.346-4.628,0.252-9.42-0.703-13.987
		c-3.125-30.109-7.796-60.009-12.181-89.953c-0.46-2.717-0.677-5.496-0.339-8.23c0.929-7.822,1.927-15.645,2.787-23.476
		c1.111-7.796,1.372-15.74,3.056-23.441c1.641-2.587,1.059-5.739,1.137-8.612c-0.087-19.968-0.026-39.937-0.026-59.905
		c-0.096-4.159,0.59-8.421-0.712-12.458c3.386-19.934,7.406-39.772,11.017-59.662c0.773-6.607,0.182-13.283,0.356-19.908
		c0.104-19.908-0.2-39.824,0.148-59.723c4.949-32.462,10.184-64.888,15.384-97.306c4.332-18.423,9.02-36.759,13.483-55.147
		c9.185-38.131,19.664-75.949,28.138-114.253c4.072-16.174,6.755-32.722,12.146-48.54c5.991-19.465,12.111-38.895,18.128-58.351
		c3.369-10.14,5.765-20.654,10.392-30.334c8.274-18.683,16.435-37.41,24.691-56.102c4.228-9.316,7.874-18.918,12.927-27.834
		c8.248-15.454,16.565-30.873,24.795-46.344c1.242-2.431,3.195-4.358,5.122-6.251c9.472-9.637,18.961-19.248,28.372-28.937
		c2.283-2.44,5.114-4.237,7.953-5.973c11.807-7.571,23.545-15.254,35.405-22.755c14.256-8.039,28.589-15.949,42.862-23.962
		c2.639-1.493,5.27-3.16,8.282-3.829C728.411,59.621,746.86,55.472,765.309,51.304z"/>
	<path fill="#FFD2BF" stroke="#FFD2BF" stroke-width="0.5" d="M882.619,175.672c4.68-0.677,9.385-2.257,14.143-1.337
		c18.041,3.152,36.099,6.216,54.166,9.22c4.037,0.651,7.692,2.596,11.425,4.167c12.945,5.565,25.855,11.217,38.834,16.704
		c3.898,1.571,6.85,4.662,9.993,7.336c10.583,9.125,21.227,18.171,31.802,27.296c3.777,3.438,8.256,6.277,10.983,10.713
		c5.018,7.718,9.932,15.506,14.994,23.198c1.485,2.188,2.613,4.61,3.23,7.197c7.831,29.605,15.801,59.176,24.188,88.625
		c4.775,18.675,12.38,36.455,18.128,54.826c2.362,9.246,4.636,18.518,6.937,27.791c1.676,6.338,2.804,12.858,5.322,18.961
		c3.864,10.045,7.684,20.107,11.538,30.169c1.676,4.402,1.979,9.142,2.752,13.752c1.58,9.741,2.987,19.517,4.654,29.249
		c1.563,7.779-0.252,15.653-0.651,23.458c-1.059,13.101-1.676,26.254-3.516,39.277c-1.528,11.799-2.96,23.615-4.593,35.405
		c-2.11,10.184-4.758,20.255-7.041,30.404c-1.806,7.128-3.16,14.395-5.556,21.366c-3.082,9.35-6.173,18.692-9.211,28.06
		c-1.424,4.48-4.775,7.918-7.345,11.738c-5.461,7.84-11.191,15.489-16.495,23.432c-7.449,13.231-14.23,26.818-21.653,40.058
		c-4.289,7.258-8.604,14.499-13.005,21.696c-3.369,5.279-4.185,11.625-5.73,17.581c4.749,4.332,9.958,8.117,14.881,12.25
		c2.457,1.815,2.674,5.07,3.516,7.779c2.822,11.46,6.919,22.66,8.126,34.476c1.068,9.62,4.089,19.196,2.674,28.945
		c-1.12,8.578-1.597,17.216-2.665,25.802c-0.695,5.339,1.597,10.41,2.613,15.549c2.136,8.005,3.542,16.235,6.251,24.075
		c7.718,17.173,15.463,34.345,23.163,51.536c6.355,12.884,13.327,25.455,19.855,38.252c1.563,3.212,3.412,6.294,5.817,8.96
		c9.255,11,18.406,22.087,27.652,33.095c2.405,2.83,3.534,6.425,4.984,9.793c3.073,7.319,6.225,14.603,9.342,21.904
		c4.489,9.107,4.957,19.439,7.241,29.188c1.198,9.185,4.922,18.214,3.455,27.591c-1.172,10.054-1.684,20.194-3.169,30.213
		c-1.641,5.157-5.044,9.533-7.388,14.386c-3.108,4.983-4.914,10.965-9.489,14.889c-5.235,4.593-10.41,9.264-15.541,13.969
		c-2.657,2.596-6.555,2.891-9.941,3.907c-20.88,5.53-41.751,11.069-62.692,16.339c-6.98,2.006-14.23,3.152-21.036,5.713
		c10.514,1.059,21.054,1.806,31.585,2.744c8.378,0.547,16.756,2.37,25.177,1.354c12.528-1.155,25.091-1.971,37.619-3.23
		c18.944-1.016,37.488-5.565,56.363-7.345c-15.549,21.488-31.889,42.394-47.525,63.812c-17.112,27.504-34.102,55.086-51.11,82.651
		c-10.123,18.831-20.142,37.723-30.23,56.571c-2.04,3.62-3.447,7.883-6.989,10.366c-13.084,9.837-26.002,19.89-39.103,29.701
		c-5.747-3.377-10.852-7.718-16.331-11.486c-8.526-6.216-17.06-12.424-25.603-18.605c-3.343-2.44-6.841-4.68-9.81-7.562
		c-22.99-23.094-45.727-46.448-68.839-69.411c-6.711-12.788-12.658-25.976-19.126-38.886c-2.144-4.028-5.6-7.093-8.465-10.557
		c-6.616-7.597-13.301-15.124-19.882-22.738c-2.414-2.77-4.627-5.826-7.796-7.77c-10.14-6.346-20.177-12.875-30.326-19.204
		c-5.904-3.768-10.418-9.238-15.61-13.865c-6.728-6.598-13.822-12.832-20.342-19.621c10.366,3.117,20.567,6.763,30.925,9.941
		c7.466,2.587,15.185,4.541,22.373,7.901c17.624,7.875,35.327,15.584,52.951,23.467c3.534,1.641,7.371,2.804,10.496,5.227
		c10.557,8.526,20.897,17.346,31.628,25.672c-5.079-10.097-10.887-19.812-16.252-29.753c-2.848-4.636-4.654-10.097-8.899-13.709
		c-6.659-6.086-13.266-12.233-19.829-18.414c-2.657-2.526-6.155-3.768-9.376-5.365c-9.159-4.436-18.328-8.855-27.469-13.327
		c-7.866-4.263-15.671-8.647-23.502-12.962c-12.615-6.772-24.813-14.36-37.888-20.246c-16.878-8.022-33.72-16.114-50.607-24.11
		c-2.856-1.363-4.532-4.167-6.494-6.494c-5.105-6.182-10.132-12.424-15.219-18.614c-2.37-2.926-5.035-5.695-6.546-9.185
		c-7.675-17.511-15.315-35.031-23.033-52.517c-1.415-3.403-3.716-6.824-2.908-10.679c1.797-13.222,3.69-26.427,5.435-39.65
		c0.703-5.435,1.424-10.87,2.917-16.148c5.739-22.964,11.339-45.962,17.034-68.934c1.728-7.423,3.872-14.75,5.339-22.226
		c2.526-22.764,4.671-45.571,7.293-68.335c17.624-6.668,35.847-11.573,53.732-17.468c6.225-1.441,11.399-5.322,16.878-8.387
		c8.517-5.053,16.86-10.392,25.394-15.41c3.151-1.762,6.121-4.471,9.923-4.488c20.263-0.33,40.527,0.009,60.79-0.2
		c10.01-0.972,19.795-3.568,29.727-5.131c6.867-1.511,14.065-1.788,20.628-4.523c11.538-4.662,23.05-9.376,34.597-14.03
		c4.949-2.318,10.375-3.698,14.941-6.798c-5.478,0.573-10.54,2.935-15.87,4.141c-7.18,1.728-14.013,5.235-21.505,5.374
		c-17.095,0.712-34.146,2.327-51.249,2.787c-4.367,0.278-8.612-0.877-12.702-2.266c-12.467-3.811-25.004-7.371-37.48-11.165
		c-13.587-3.725-26.089-10.366-39.112-15.567c-8.335-3.499-16.6-7.163-24.943-10.644c-3.794-1.65-7.918-2.7-11.269-5.218
		c-6.06-4.593-11.182-10.253-17.042-15.072c-12.016-10.575-23.875-21.314-35.795-31.984c-1.042-1.111-2.5-1.502-3.976-1.485
		c-0.886-3.742-3.342-6.781-5.357-9.958c-5.044-7.953-10.193-15.844-15.228-23.797c-3.152-5.261-6.937-10.149-9.706-15.61
		c-0.781-6.633-0.721-13.353-1.354-20.012c-0.504-14.698-1.606-29.362-2.24-44.052c-0.391-5.591,0.851-11.087,1.65-16.582
		c3.004-20.064,5.982-40.136,9.073-60.183c1.684-10.392,2.414-21.001,5.609-31.072c4.81-17.416,9.75-34.797,14.429-52.239
		c3.369-23.337,6.546-46.708,9.689-70.08c0.26-22.278,1.042-44.555,1.129-66.833c-1.728-15.054-3.837-30.074-5.678-45.12
		c-0.425-13.891,0.625-27.773,0.755-41.664c0.122-2.587-0.278-5.574,1.771-7.553c6.937-8.144,13.388-16.704,20.533-24.657
		c10.74-9.515,21.852-18.623,32.618-28.121c3.186-2.961,7.388-4.315,11.278-6.069c11.634-5.14,23.267-10.305,34.91-15.462
		c3.49-1.537,6.893-3.49,10.74-4.02C854.802,180.308,868.693,177.886,882.619,175.672z"/>
	<path fill="#FFBBA8" stroke="#FFBBA8" stroke-width="0.5" d="M726.25,765.553c1.476-0.017,2.935,0.373,3.976,1.485
		c11.92,10.67,23.78,21.409,35.795,31.984c5.86,4.818,10.983,10.479,17.042,15.072c3.351,2.518,7.475,3.568,11.269,5.218
		c8.343,3.481,16.608,7.145,24.943,10.644c13.023,5.2,25.525,11.842,39.112,15.567c12.476,3.794,25.012,7.354,37.48,11.165
		c4.089,1.389,8.335,2.544,12.702,2.266c17.103-0.46,34.154-2.075,51.249-2.787c7.492-0.139,14.325-3.646,21.505-5.374
		c5.331-1.207,10.392-3.568,15.87-4.141c-4.567,3.099-9.993,4.48-14.941,6.798c-11.547,4.653-23.059,9.368-34.597,14.03
		c-6.564,2.735-13.761,3.013-20.628,4.523c-9.932,1.563-19.716,4.159-29.727,5.131c-20.263,0.208-40.527-0.13-60.79,0.2
		c-3.803,0.017-6.772,2.726-9.923,4.488c-8.534,5.018-16.878,10.358-25.394,15.41c-5.478,3.065-10.653,6.945-16.878,8.387
		c-17.885,5.895-36.108,10.8-53.732,17.468c2.665-23.823,5.608-47.629,8.387-71.443c0.356-3.516,1.198-7.058,0.686-10.601
		C735.261,815.873,730.434,790.765,726.25,765.553z"/>
	<path fill="#6F3A44" stroke="#6F3A44" stroke-width="0.5" d="M410.342,828.931c1.302,4.037,0.616,8.3,0.712,12.458
		c0,19.968-0.061,39.937,0.026,59.905c-0.078,2.874,0.504,6.025-1.137,8.612c-0.156-22.547-0.026-45.102-0.069-67.649
		C409.9,837.812,409.596,833.332,410.342,828.931z"/>
	<path fill="#D13F4A" stroke="#D13F4A" stroke-width="0.5" d="M1325.299,983.338c36.186,7.032,72.355,14.264,108.523,21.462
		c4.792,1.024,9.811,1.476,14.23,3.794c20.324,9.802,40.77,19.343,61.068,29.188c16.834,9.177,33.573,18.51,50.355,27.799
		c3.968,2.318,8.517,3.968,11.608,7.545c9.802,10.731,19.647,21.444,29.51,32.132c2.101,2.196,3.143,5.096,4.245,7.883
		c5.582,13.752,11.399,27.409,17.051,41.143c1.979,6.095,2.396,12.571,3.586,18.857c2.917,17.902,5.912,35.795,8.803,53.697
		c1.91,12.641,4.393,25.203,6.025,37.879c-1.319,4.94-0.373,10.071-0.625,15.115c-0.017,52.083-0.026,104.174,0,156.265
		c0.148,4.445-0.556,8.968,0.642,13.335c-1.155,17.008-3.36,33.937-4.792,50.937c-1.189,14.481-3.282,28.893-3.846,43.427
		c-0.677,12.979-1.406,25.967-2.127,38.956c-0.538,22.738-4.593,45.18-6.702,67.788h-89.241c-4.072-16.617-7.753-33.33-11.651-49.99
		c-1.146-5.895-3.23-11.66-3.221-17.72c0.035-14.759,0.026-29.518,0.026-44.278c0.278-14.794-1.537-29.527-1.736-44.304
		c-0.582-11.304-1.433-22.59-1.806-33.894c-0.781-10.106,0.208-20.22,0.295-30.334c1.163-24.665,1.875-49.339,3.082-74.004
		c0.477-5.253-2.448-9.915-3.811-14.803c-2.457-7.354-4.81-14.742-7.414-22.026c-1.58-8.118,0.052-16.426,0.234-24.604
		c0.79-11,0.885-22.026,1.103-33.043c0.148-3.395-1.528-6.416-2.969-9.342c-3.151-6.607-6.902-12.901-9.932-19.56
		c-3.334-6.546-6.329-13.249-9.897-19.656c-2.231-4.584-4.419-9.211-7.597-13.222c-15.063-20.264-30.074-40.562-45.137-60.808
		c-9.559-11.243-19.925-21.774-29.527-32.982c-4.541-4.749-8.5-10.01-13.066-14.724c-7.597-6.728-16.322-11.998-24.431-18.058
		c-6.138-4.289-12.111-8.786-18.301-12.997c-2.005-1.276-3.264-3.36-3.89-5.591c-4.289-14.724-8.803-29.388-13.387-44.017
		c-2.327-7.249-3.976-14.681-5.687-22.078C1324.378,986.767,1324.682,984.979,1325.299,983.338z"/>
	<path fill="#D13F4A" stroke="#D13F4A" stroke-width="0.5" d="M468.641,1036.922c7.136-2.37,14.273-6.234,22.052-4.636
		c-0.521,5.886-2.275,11.582-3.369,17.381c-8.092,39.537-16.73,78.953-24.821,118.49c-7.649,34.84-14.073,69.924-20.837,104.938
		c-0.851,5.921-5.687,9.88-8.769,14.655c-6.433,8.083-12.163,16.687-18.597,24.769c-3.438,5.704-9.802,8.308-15.193,11.729
		c-8.213,5.148-16.461,10.219-24.709,15.306c-7.961,5.088-16.739,8.665-25.125,12.971c-5.886,2.744-11.269,6.503-17.39,8.76
		c-5.131,2.24-10.818,2.257-16.296,2.77c-4.957,0.33-9.81,1.467-14.759,1.754c-5.244,0.269-10.375,1.519-15.619,1.719
		c-4.862,0.252-9.724,0.938-14.351,2.509c9.081,4.315,18.892,6.815,28.225,10.514c3.013,1.207,6.346,1.389,9.507,0.721
		c15.358-3.143,30.951-4.992,46.274-8.291c7.275-2.943,13.483-7.961,20.168-11.99c6.216-3.551,12.05-7.692,18.154-11.399
		c2.492-1.45,4.871-3.725,7.944-3.525c1.797,6.711,0.903,13.743,2.24,20.541c1.085,4.662-0.538,9.29-1.103,13.9
		c-3.108,19.065-5.704,38.209-8.795,57.274c-0.686,5.14,0.599,10.236,1.406,15.289c1.146,9.68,3.23,19.213,4.497,28.885
		c1.476,6.251,1.189,12.736,2.448,19.031c1.129,10.852,2.422,21.687,3.716,32.522c0.781,9.758,3.655,19.187,4.732,28.919
		c-3.499,18.458-4.567,37.341-9.047,55.625c-2.092,10.861-4.792,21.609-6.833,32.488H40.26c3.829-27.591,8.065-55.112,12.033-82.677
		c1.163-7.432,1.919-14.942,3.942-22.191c9.897-40.214,19.526-80.498,29.492-120.687c11.477-35.057,23.085-70.08,34.623-105.12
		c2.136-6.164,3.733-12.554,6.676-18.406c7.935-16.678,16.001-33.295,23.91-49.99c2.717-5.582,5.218-11.304,8.691-16.469
		c14.82-23.693,29.605-47.412,44.356-71.148c0.781-1.216,1.762-2.283,2.943-3.108c32.357-22.035,64.689-44.121,97.029-66.191
		c2.969-2.031,5.869-4.315,9.359-5.383c34.432-11.382,68.847-22.842,103.306-34.163c0.955,4.567,2.049,9.359,0.703,13.987
		c-2.717,8.395-4.584,17.06-7.727,25.316c-1.424,2.561-4.35,3.733-6.468,5.635c-4.992,4.28-10.878,7.449-15.393,12.293
		c6.668-0.998,12.207-5.105,18.284-7.701c5.643-2.396,11.174-5.027,16.825-7.397c2.518-1.042,5.313-2.283,6.216-5.096
		c4.167-10.462,9.116-20.593,13.17-31.107c1.936-4.87,1.276-10.175,1.389-15.289C451.92,1042.618,460.298,1039.831,468.641,1036.922
		z"/>
	<path fill="#D13F4A" stroke="#D13F4A" stroke-width="0.5" d="M1281.464,1215.986c3.013-4.436,4.94-9.515,8.291-13.709
		c3.455,4.054,3.733,9.689,5.956,14.386c2.709,5.626,4.402,11.66,6.642,17.485c1.962,5.565,5.036,10.635,7.423,16.027
		c3.768,8.23,8.413,16.009,12.32,24.179c2.804,5.721,4.341,11.929,6.32,17.972c2.301,7.38,5.027,14.629,7.501,21.965
		c0.964,2.492,0.278,5.174-0.538,7.614c-2.518,7.501-4.549,15.159-6.885,22.72c-0.668,2.04-1.372,4.193-2.969,5.73
		c-8.708,8.378-17.945,16.183-26.636,24.587c-6.442,6.642-15.792,8.76-23.927,12.545c-7.38,2.613-14.212,6.65-21.826,8.586
		c-9.064,2.518-18.38,4.037-27.443,6.546c-0.304,0.26-0.903,0.764-1.207,1.016c5.235,0.087,10.531,0.399,15.705-0.669
		c4.584-0.946,9.281-0.694,13.934-0.842c7.822-0.208,15.575-1.589,23.424-1.528c3.203,0.043,6.589-0.078,9.333-1.988
		c10.583-6.451,20.975-13.205,31.506-19.743c4.992-3.325,10.705-5.938,14.386-10.852c4.905-6.355,10.141-12.441,15.028-18.813
		c2.24-3.004,5.226-5.609,6.381-9.272c3.933-12.606,7.527-25.316,11.538-37.896c2.778-6.989,5.53-13.995,8.638-20.837
		c2.292-5.131,3.698-10.644,6.572-15.514c2.492,2.24,4.445,4.966,6.39,7.683c1.815,2.578,4.237,4.975,4.723,8.248
		c0.903,4.862,1.728,9.75,2.787,14.594c0.747,3.725,1.572,7.571,0.929,11.382c-1.563,9.064-4.419,17.824-6.251,26.827
		c-2.058,7.058-3.004,14.429-5.687,21.305c-4.593,10.427-9.038,20.932-13.995,31.185c-3.36,5.817-9.845,8.63-14.264,13.474
		c-3.108,3.837-8.005,5.982-10.349,10.436c7.527-2.796,13.388-8.621,20.168-12.771c9.437-6.52,19.378-12.328,28.563-19.213
		c7.38-8.795,14.898-17.511,22.2-26.402c3.586-4.48,7.77-8.448,11.26-13.005c2.214-2.839,2.561-6.537,3.317-9.915
		c2.891-13.978,6.042-27.904,9.211-41.812c0.408-1.354,0.955-4.515,2.986-3.082c3.612,2.7,6.789,5.947,10.418,8.647
		c3.004,2.249,5.721,4.983,7.206,8.508c5.843,12.172,11.477,24.439,17.103,36.716c4.02,10.14,8.187,20.22,12.241,30.352
		c1.259,3.212,3.186,6.329,3.108,9.915c-0.017,11.243-0.347,22.486-1.354,33.694c-0.807,8.17-0.017,16.426-1.285,24.561
		c-1.146,6.911-0.695,13.952-1.589,20.888c-1.815,12.155-1.38,24.561,0.156,36.733c0.408,4.87,0.26,9.802,0.981,14.664
		c0.825,5.591,4.263,10.305,6.312,15.497c2.014,5.174,5.504,9.845,6.303,15.454c1.754,14.247,4.02,28.424,5.808,42.663
		c0.617,5.513,2.162,11.009,1.415,16.591c-1.111,9.481-1.58,19.022-2.726,28.511c-0.608,4.115,0.226,8.916-2.639,12.354
		c-2.796,3.351-5.478,6.789-8.222,10.175H543.444c-1.398-7.874-3.846-15.506-5.695-23.267c-6.425-24.752-10.036-50.12-15.61-75.063
		c4.48-10.054,8.204-20.428,12.806-30.43c5.391-15.159,13.031-29.353,20.932-43.314c4.732-8.343,8.447-17.277,13.917-25.186
		c4.61-6.121,8.829-12.528,13.561-18.562c4.489-5.435,8.109-11.503,12.467-17.025c8.309-11.703,16.999-23.12,24.752-35.205
		c4.931-6.702,9.593-13.605,14.204-20.524c2.466-3.455,1.762-7.875,2.075-11.842c0.122-4.68,0.998-9.272,1.893-13.839
		c4.254,1.736,7.805,4.758,11.651,7.232c9.984,6.841,20.133,13.431,30.169,20.203c5.001,3.178,9.646,7.249,15.523,8.751
		c17.841,5.157,34.892,13.084,53.255,16.409c19.335,4.081,38.66,8.196,57.995,12.276c15.888,4.966,31.098,11.859,46.795,17.39
		c4.159,1.502,7.215,4.827,10.566,7.579c4.931,4.055,9.976,7.97,14.942,11.998c6.234,4.758,7.171,13.075,10.774,19.595
		c1.233,3.073,3.69,6.225,2.639,9.715c-1.65,6.277-3.152,12.597-4.324,18.996c4.471-3.369,7.067-8.465,10.653-12.641
		c2.987-4.211,6.72-7.909,9.194-12.45c2.17-8.942,2.344-18.345,5.183-27.148c23.111,22.964,45.849,46.318,68.839,69.411
		c2.969,2.882,6.468,5.122,9.81,7.562c8.543,6.182,17.077,12.389,25.603,18.605c5.478,3.768,10.583,8.109,16.331,11.486
		c13.101-9.811,26.02-19.864,39.103-29.701c3.542-2.483,4.949-6.746,6.989-10.366c10.088-18.848,20.107-37.74,30.23-56.571
		c17.008-27.565,33.998-55.147,51.11-82.651c15.636-21.418,31.975-42.324,47.525-63.812c10.21-6.381,19.899-13.561,30.031-20.073
		c1.554-1.007,3.047-2.153,4.167-3.638c4.593-6.156,8.873-12.528,13.413-18.709c4.081-6.051,8.647-11.781,12.137-18.206
		C1272.886,1230.172,1277.375,1223.192,1281.464,1215.986z"/>
	<path fill="#A73036" stroke="#A73036" stroke-width="0.5" d="M1639.678,1279.833c0.252-5.044-0.694-10.175,0.625-15.115
		c0.148,1.841,0.287,3.698,0.321,5.574c-0.026,47.742,0,95.492-0.009,143.234c-0.174,11.964,0.356,23.953-0.295,35.908
		c-1.198-4.367-0.495-8.89-0.642-13.335C1639.652,1384.006,1639.661,1331.915,1639.678,1279.833z"/>
	<path fill="#912C34" stroke="#912C34" stroke-width="0.5" d="M1516.135,1370.08c0.651-4.723,0.686-9.585,2.466-14.065
		c-1.207,24.665-1.919,49.339-3.082,74.004c-0.087,10.114-1.077,20.229-0.295,30.334c0.373,11.304,1.224,22.59,1.806,33.894
		c0.2,14.776,2.014,29.51,1.736,44.304c0,14.759,0.009,29.518-0.026,44.278c-0.009,6.06,2.075,11.825,3.221,17.72
		c3.898,16.66,7.579,33.373,11.651,49.99h-37.453c2.743-3.386,5.426-6.824,8.222-10.175c2.865-3.438,2.032-8.239,2.639-12.354
		c1.146-9.489,1.615-19.031,2.726-28.511c0.747-5.582-0.799-11.078-1.415-16.591c-1.788-14.238-4.054-28.416-5.808-42.663
		c-0.799-5.608-4.289-10.279-6.303-15.454c-2.049-5.192-5.487-9.906-6.312-15.497c0.842-2.865,1.789-5.687,2.405-8.595
		c2.153-10.714,4.914-21.279,7.136-31.967c2.848-13.856,6.833-27.478,8.664-41.525
		C1510.552,1408.133,1513.496,1389.129,1516.135,1370.08z"/>
	<path fill="#912C34" stroke="#912C34" stroke-width="0.5" d="M458.666,1380.351c5.27,4.08,9.255,9.507,13.891,14.247
		c6.303,6.425,12.754,12.719,18.623,19.56c1.893,2.144,2.014,5.148,2.674,7.822c2.344,10.861,4.923,21.687,7.284,32.557
		c0.703,3.516,2.092,7.041,1.545,10.688c-3.256,18.718-6.529,37.436-9.68,56.172c-0.972,6.433-4.063,12.224-6.086,18.336
		c-2.787,7.128-5.348,14.334-8.039,21.496c-5.4,15.905-16.713,28.867-23.623,44.043c10.47-7.041,20.498-14.742,30.465-22.469
		c12.945-9.203,24.179-20.524,36.42-30.595c5.574,24.943,9.185,50.311,15.61,75.063c1.849,7.762,4.298,15.393,5.695,23.267h-149.05
		c2.04-10.878,4.74-21.627,6.833-32.488c4.48-18.284,5.548-37.167,9.047-55.625c2.431,8.395,3.082,17.19,5.452,25.612
		c2.118-3.117,2.943-6.833,4.263-10.297c7.05-19.378,13.865-38.825,20.672-58.29c4.506-15.827,9.698-31.446,14.256-47.255
		c2.223-11.538,3.204-23.285,5.122-34.875c1.033-8.63,2.552-17.208,3.473-25.837c-0.33-6.286-2.144-12.389-3.108-18.579
		C459.812,1388.721,458.24,1384.614,458.666,1380.351z"/>
</g>
</svg>
