<?xml version="1.0" encoding="utf-8"?>
<svg version="1.1" id="Layer_1" xmlns="http://www.w3.org/2000/svg" xmlns:xlink="http://www.w3.org/1999/xlink" x="0px" y="0px"
	 viewBox="0 0 1462.42 1674.772" enable-background="new 0 0 1462.42 1674.772" xml:space="preserve">
<g>
	<path fill="#E6CB96" stroke="#E6CB96" d="M808.554,79.109c19.045-3.32,38.452-2.706,57.653-4.271
		c10.988-0.112,22.01-0.38,32.946,0.813c11.541,1.15,23.212,0.908,34.657,2.931c13.823,1.582,27.024,6.198,40.32,10.063
		c17.437,5.922,33.845,14.497,49.743,23.722c6.925,4.547,13.599,9.483,20.506,14.074c6.665,5.083,13.218,10.348,19.511,15.898
		c10.469,9.164,18.189,20.955,28.71,30.067c5.386,4.418,9.743,9.855,14.584,14.826c14.48,15.431,24.949,33.974,36.784,51.385
		c4.184,6.397,7.262,13.426,11.161,20.004c4.668,8.152,8.264,16.849,11.567,25.623c2.62,6.112,5.533,12.12,7.322,18.552
		c6.146,19.736,12.051,39.645,15.137,60.125c1.513,9.855,1.521,19.849,2.144,29.782c0.622,11.359-2.248,22.459-3.276,33.706
		c-0.985,7.78-1.91,15.595-3.76,23.229c-2.178,8.481-2.274,17.298-3.518,25.926c-0.743,6.458-3.026,12.587-4.374,18.924
		c-2.031,9.311-3.812,18.699-4.66,28.208c-0.89,9.795-3.224,19.391-4.513,29.125c-0.752,8.334-2.533,16.538-2.861,24.915
		c-0.64,9.051-4.098,17.964-2.913,27.084c0.934,4.824-0.337,9.656-0.328,14.497c0.277,19.391-2.023,38.669-3.328,57.981
		c-0.501,6.086-2.075,12.008-2.844,18.051c-2.049,13.036-4.227,26.038-6.734,38.997c-1.107,7.417-3.985,14.688-3.086,22.295
		c-2.213,1.66-4.227,3.856-4.236,6.804c-0.769,9.06-1.495,18.189-4.02,26.972c-2.222,7.115-3.034,14.567-5.247,21.673
		c-5.334,16.451-10.651,32.963-17.774,48.74c-2.17,4.893-3.458,10.141-5.783,14.973c-3.89,8.334-8.922,16.062-12.95,24.327
		c-7.374,12.812-14.982,25.554-24.05,37.268c-4.711,5.913-9.604,11.679-14.454,17.489c-9.544,12.803-19.892,24.992-30.733,36.706
		c-3.449,3.164-7.115,6.103-10.322,9.527c-2.818,3.026-7.409,5.17-7.547,9.855c-0.311-0.415-0.934-1.245-1.245-1.66
		c-5.066,3.302-9.19,7.824-14.247,11.143c-8.498,5.827-17.056,11.679-26.505,15.872c-15.587,8.195-32.392,13.858-49.501,17.869
		c-15.535,4.478-31.83,4.331-47.806,5.654c-17.566-0.596-35.09-3.544-51.809-9.017c-7.478-2.55-15.276-4.305-22.356-7.893
		c-7.219-3.553-14.67-6.821-21.068-11.766c-7.132-5.55-14.091-11.29-21.137-16.935c-4.271-3.492-8.645-6.881-12.466-10.875
		c-6.415-6.553-13.132-12.803-19.157-19.728c-10.728-11.472-22.235-22.183-33.093-33.525
		c-11.558-12.967-22.494-26.488-33.706-39.758c-5.308-6.051-8.904-13.434-14.644-19.105c0.718,6.389,2.498,12.596,3.717,18.906
		c2.403,11.8,4.409,23.808,9.025,35.003c1.772,4.314,2.836,8.913,5.014,13.062c6.613,12.224,11.04,25.494,17.627,37.735
		c3.475,6.613,6.423,13.512,10.357,19.892c4.063,6.7,8.023,13.469,11.593,20.445c4.988,8.939,10.357,17.662,16.33,25.987
		c14.567,23.212,28.442,47.002,45.697,68.381c6.726,8.36,12.379,17.506,19.045,25.909c7.123,9.553,14.947,18.543,22.14,28.044
		c5.904,7.59,12.008,15.025,18.483,22.14c4.833,5.801,10.616,10.702,15.405,16.555c9.57,11.204,21.094,20.445,32.315,29.92
		c6.121,4.867,12.241,9.777,18.794,14.074c7.357,4.815,14.394,10.244,22.459,13.858c8.264,3.735,16.546,7.521,25.252,10.141
		c9.604,2.654,19.416,4.487,29.194,6.38c7.383,1.556,14.938,0.994,22.416,1.331c-3.804,1.011-7.651,1.919-11.584,2.204
		c-5.922,0.432-11.87-0.208-17.765,0.545c-6.449,0.925-12.89-0.501-19.339-0.571c-10.192-1.055-20.67-1.158-30.352-4.893
		c-6.363-2.524-13.253-3.458-19.382-6.535c-15.544-7.27-31.805-12.777-47.823-18.855c-8.213-3.83-16.832-6.665-25.139-10.261
		c-5.55-2.351-11.074-4.781-16.754-6.786c-10.132-3.527-18.319-10.694-26.739-17.065c-6.371-4.833-12.112-10.417-18.336-15.422
		c-4.677-3.683-8.411-8.36-12.959-12.163c-8.014-6.63-14.446-14.964-22.667-21.353c-5.187-4.02-9.483-9.06-14.887-12.82
		c-10.573-8.697-22.485-15.941-31.433-26.479c-4.271-5.195-9.043-9.959-14.212-14.247c-5.507-4.634-9.544-10.668-14.229-16.062
		c-6.19-7.201-10.841-15.535-16.944-22.805c-5.758-6.855-9.769-14.921-15.284-21.941c-3.717-5.42-8.558-9.959-12.025-15.569
		c-6.017-8.1-12.57-15.803-18.215-24.18c-3.709-6.242-8.351-11.904-11.584-18.422c3.717-2.533,7.331-5.213,10.875-7.988
		c8.567-5.714,16.382-12.449,24.647-18.569c1.789-1.375,3.553-2.766,5.308-4.175c3.527-2.887,7.262-5.498,11.057-8.022
		c1.798-1.375,4.34-2.732,4.072-5.377c0.069-17.584,0.026-35.167,0-52.751c-0.052-5.792,0.968-11.515,0.873-17.298
		c-0.086-8.982,0.925-17.93,1.539-26.877c0.277-3.026-1.366-5.688-2.619-8.29c-7.703-14.376-12.016-30.266-14.999-46.216
		c-0.968-6.371-1.245-12.933-3.475-19.036c-3.579-9.933-5.766-20.281-8.532-30.456c-2.066-7.495-2.222-15.336-3.882-22.909
		c-1.401-6.017-1.366-12.276-3.078-18.223c1.565,0.06,3.544-0.398,4.66,1.046c1.954,2.17,3.786,4.521,6.354,6.043
		c0.83-2.421-0.216-4.832-0.865-7.141c-3.164-10.702-5.049-21.768-5.498-32.911c-1.625-0.009-3.242-0.009-4.85,0.009
		c-1.003,9.077,0.45,18.232-0.804,27.301c-12.769-5.982-23.782-14.982-34.13-24.422c-4.954-4.582-9.043-9.968-13.797-14.731
		c-14.221-15.933-24.551-34.917-32.747-54.523c-3.147-9.138-6.034-18.431-7.564-27.992c-1.21-6.959-3.311-13.745-4.184-20.765
		c-0.752-6.544-2.23-13.028-2.075-19.65c0.112-8.074-0.078-16.14-0.052-24.214c-0.043-7.089,1.876-14.039,4.625-20.523
		c1.738-4.037,3.7-8.143,7.046-11.109c2.922-2.576,5.49-5.498,7.919-8.524c4.677-5.619,12.604-6.639,19.477-6.38
		c9.795,0.121,18.716,5.602,25.165,12.682c4.867,4.616,9.155,9.898,14.446,14.039c5.645,2.784,11.688,4.737,17.393,7.435
		c-1.141-7.08-3.467-13.901-4.711-20.955c-1.305-7.305-2.862-14.593-3.173-22.027c-0.354-7.141-2.032-14.117-2.749-21.215
		c-1.115-15.397-2.775-30.75-3.294-46.181c-0.769-10.65,0.251-21.31,0.225-31.96c-0.432-11.584,0.96-23.116,2.412-34.58
		c0.398-7.772,2.689-15.232,4.08-22.84c2.913-14.039,9.769-26.782,14.031-40.389c5.196-16.503,11.61-32.634,19.157-48.204
		c3.622-8.377,9.181-15.682,13.633-23.601c5.939-9.994,13.071-19.209,19.633-28.805c18.154-21.508,38.098-41.677,60.566-58.707
		c7.452-5.308,15.301-10.011,22.909-15.094c14.048-8.861,29.747-14.549,45.118-20.653c7.028-2.879,14.506-4.383,21.681-6.847
		C801.63,80.622,805.053,79.679,808.554,79.109 M520.429,513.653c-0.32,2.187,2.118,2.602,3.596,3.406
		c4.884,1.988,9.034,5.325,13.253,8.42c6.449,4.789,10.936,11.576,15.829,17.826c4.003,4.902,6.717,10.676,9.579,16.287
		c2.645,7.08,3.691,14.644,5.723,21.915c1.089,4.314,1.91,9.942,6.674,11.731c-0.242-1.202-0.45-2.412-0.899-3.544
		c-4.392-9.691-5.196-20.497-8.584-30.516c-2.939-6.717-6.708-13.071-11.351-18.759c-4.02-4.893-7.175-10.633-12.414-14.385
		C535.41,520.949,529.082,514.267,520.429,513.653 M524.751,540.495c-2.066,5.092-4.876,9.916-6.345,15.241
		c-2.282,7.201-1.789,14.843-3.536,22.148c-0.588,6.855-2.17,13.633-2.014,20.549c0.086,4.21-0.536,8.602,1.081,12.622
		c1.15,3.086,1.997,6.276,2.697,9.492c1.4,6.397,4.487,12.293,8.083,17.713c5.308,7.711,15.613,10.512,19.901,19.079
		c2.161,3.778,2.542,8.239,4.539,12.086c1.962-1.764,1.081-4.642,0.475-6.812c-1.193-3.467-2.395-7.063-4.711-9.968
		c-3.285-3.691-7.357-6.57-11.368-9.406c-4.504-3.311-8.403-7.625-10.443-12.89c-3.579-7.21-5.057-15.276-5.291-23.263
		c0.182-5.377,0.804-10.746,1.323-16.097c1.945-11.792,5.109-23.35,8.429-34.813c2.127-5.87,3.838-11.895,4.876-18.059
		c-0.562-0.545-1.115-1.072-1.66-1.599C528.503,537.305,525.607,537.885,524.751,540.495 M585.404,579.129
		c-1.755,3.268-1.643,7.037-2.066,10.616c-0.717,5.948-0.951,11.999-0.424,17.981c0.657,1.634,2.559,0.942,3.925,1.124
		c0.182-4.798-0.242-9.622,0.415-14.402c0.363-4.098,1.21-8.161,1.245-12.276C588.68,580.322,586.657,579.821,585.404,579.129
		 M571.01,617.737c-1.945,4.703-1.418,10.331-4.677,14.497c-0.441,0.908-1.608,1.789-1.254,2.896
		c1.392,1.504,3.268,2.472,4.936,3.657c0.83,3.415,0.847,7.132,2.689,10.244c1.833,3.207,4.297,6.06,7.348,8.178
		c2.568-3.346,2.17-7.893,1.461-11.792c-0.873-4.279-4.893-6.639-7.115-10.106c-1.202-5.49,0.242-11.195-0.7-16.719
		C573.517,617.34,571.909,617.02,571.01,617.737 M546.311,631.128c-0.692,4.167,4.141,5.438,7.305,5.974
		c3.337,0.415,8.1-0.026,9.094-3.925c-0.579-0.519-1.15-1.037-1.712-1.547c-2.248,0.527-4.461,1.383-6.786,1.444
		C551.55,632.512,549.086,631.077,546.311,631.128z"/>
	<path fill="#CEB483" stroke="#CEB483" d="M520.429,513.653c8.654,0.614,14.982,7.296,21.405,12.379
		c5.239,3.752,8.394,9.492,12.414,14.385c4.642,5.688,8.411,12.042,11.351,18.759c3.389,10.019,4.193,20.826,8.584,30.516
		c0.45,1.133,0.657,2.343,0.899,3.544c-4.763-1.79-5.585-7.417-6.674-11.731c-2.032-7.27-3.078-14.835-5.723-21.915
		c-2.861-5.611-5.576-11.385-9.579-16.287c-4.893-6.25-9.38-13.036-15.829-17.826c-4.219-3.095-8.368-6.432-13.253-8.42
		C522.547,516.255,520.109,515.84,520.429,513.653z"/>
	<path fill="#CDB584" stroke="#CDB584" d="M524.751,540.495c0.856-2.611,3.752-3.19,6.034-3.977c0.545,0.527,1.098,1.055,1.66,1.599
		c-1.037,6.164-2.749,12.189-4.876,18.059c-3.32,11.463-6.484,23.021-8.429,34.813c-0.519,5.351-1.141,10.72-1.323,16.097
		c0.233,7.988,1.712,16.054,5.291,23.263c2.04,5.265,5.939,9.579,10.443,12.89c4.011,2.836,8.083,5.714,11.368,9.406
		c2.317,2.905,3.518,6.501,4.711,9.968c0.605,2.17,1.487,5.049-0.475,6.812c-1.997-3.847-2.377-8.308-4.539-12.086
		c-4.288-8.567-14.593-11.368-19.901-19.079c-3.596-5.42-6.682-11.316-8.083-17.713c-0.7-3.216-1.547-6.406-2.697-9.492
		c-1.617-4.02-0.994-8.411-1.081-12.622c-0.156-6.916,1.426-13.693,2.014-20.549c1.746-7.305,1.253-14.947,3.536-22.148
		C519.875,550.411,522.685,545.587,524.751,540.495z"/>
	<path fill="#C6AD7E" stroke="#C6AD7E" d="M585.404,579.129c1.253,0.692,3.276,1.193,3.095,3.043
		c-0.035,4.115-0.882,8.178-1.245,12.276c-0.657,4.781-0.233,9.604-0.415,14.402c-1.366-0.182-3.268,0.51-3.925-1.124
		c-0.527-5.982-0.294-12.034,0.424-17.981C583.761,586.166,583.649,582.397,585.404,579.129z"/>
	<path fill="#D9BF8E" stroke="#D9BF8E" d="M1174.363,595.382c11.264-3.856,24.206,2.498,29.816,12.622
		c3.121,5.982,4.997,12.838,4.106,19.624c-1.011,10.313-5.438,19.823-9.786,29.09c-2.844,5.412-4.755,11.23-7.417,16.728
		c-3.821,7.677-5.576,16.14-8.731,24.085c-2.222,7.4-6.216,14.057-9.051,21.215c-2.844,6.821-7.486,12.647-11.429,18.846
		c-4.331,7.046-10.261,13.002-16.771,18.051c-0.899-7.608,1.98-14.878,3.086-22.295c2.507-12.959,4.686-25.961,6.734-38.997
		c0.769-6.043,2.343-11.965,2.844-18.051c1.305-19.313,3.605-38.591,3.328-57.981c-0.009-4.841,1.262-9.674,0.328-14.497
		C1165.07,600.128,1169.47,597.163,1174.363,595.382 M1189.414,619.864c-5.775,2.723-11.93,5.835-15.483,11.377
		c-1.694,2.222-4.487,3.121-6.769,4.573c0.553,0.726,1.115,1.461,1.694,2.205c2.057-0.7,4.106-1.435,6.138-2.239
		c-1.271,3.423-2.619,6.959-2.308,10.685c0.32,5.126-0.415,10.279,0.294,15.397c1.21,9.406,0.363,19.053-2.507,28.096
		c-1.132,3.259-3.294,6.06-4.297,9.371c0.467,0.346,1.401,1.037,1.859,1.383c3.761-3.242,5.732-7.962,6.76-12.708
		c1.513-4.902,2.749-9.881,3.104-15.016c1.383-7.218-0.761-14.402-2.412-21.37c-1.063-4.374,1.089-8.61,1.66-12.881
		c0.251-1.893-1.755-3.812-0.475-5.585c1.599-2.714,4.322-4.452,6.829-6.242c3.181-2.196,6.518-4.556,10.469-5.023
		c3.596-0.588,6.259,2.516,9.535,3.423c-0.199-1.202-0.009-2.628-1.176-3.354C1198.845,618.939,1193.658,617.651,1189.414,619.864z"
		/>
	<path fill="#CDB584" stroke="#CDB584" d="M571.01,617.737c0.899-0.718,2.507-0.398,2.689,0.856c0.942,5.524-0.501,11.23,0.7,16.719
		c2.222,3.467,6.242,5.827,7.115,10.106c0.709,3.899,1.107,8.446-1.461,11.792c-3.052-2.118-5.515-4.971-7.348-8.178
		c-1.841-3.112-1.859-6.829-2.689-10.244c-1.668-1.184-3.544-2.153-4.936-3.657c-0.354-1.107,0.813-1.988,1.254-2.896
		C569.592,628.068,569.065,622.44,571.01,617.737z"/>
	<path fill="#C2AC7D" stroke="#C2AC7D" d="M1189.414,619.864c4.245-2.213,9.432-0.925,12.915,2.092
		c1.167,0.726,0.977,2.153,1.176,3.354c-3.276-0.908-5.939-4.011-9.535-3.423c-3.951,0.467-7.288,2.827-10.469,5.023
		c-2.507,1.79-5.23,3.527-6.829,6.242c-1.279,1.772,0.726,3.691,0.475,5.585c-0.571,4.271-2.723,8.507-1.66,12.881
		c1.651,6.968,3.795,14.152,2.412,21.37c-0.354,5.135-1.591,10.115-3.104,15.016c-1.029,4.746-3,9.466-6.76,12.708
		c-0.458-0.346-1.392-1.037-1.859-1.383c1.003-3.311,3.164-6.112,4.297-9.371c2.87-9.043,3.717-18.69,2.507-28.096
		c-0.709-5.118,0.026-10.27-0.294-15.397c-0.311-3.726,1.037-7.262,2.308-10.685c-2.031,0.804-4.08,1.539-6.138,2.239
		c-0.579-0.744-1.141-1.478-1.694-2.205c2.282-1.452,5.075-2.351,6.769-4.573C1177.484,625.699,1183.639,622.587,1189.414,619.864z"
		/>
	<path fill="#CEB483" stroke="#CEB483" d="M546.311,631.128c2.775-0.052,5.239,1.383,7.901,1.945
		c2.326-0.06,4.539-0.916,6.786-1.444c0.562,0.51,1.133,1.029,1.712,1.547c-0.994,3.899-5.757,4.34-9.094,3.925
		C550.452,636.566,545.62,635.295,546.311,631.128z"/>
	<path fill="#CDB585" stroke="#CDB585" d="M588.04,695.187c1.608-0.017,3.225-0.017,4.85-0.009
		c0.449,11.143,2.334,22.209,5.498,32.911c0.648,2.308,1.694,4.72,0.865,7.141c-2.568-1.522-4.4-3.873-6.354-6.043
		c-1.115-1.444-3.095-0.986-4.66-1.046c-0.493-1.859-0.908-3.743-1.003-5.654C588.49,713.419,587.037,704.264,588.04,695.187z"/>
	<path fill="#C4AD81" stroke="#C4AD81" d="M639.244,890.25c5.74,5.671,9.336,13.054,14.644,19.105
		c11.212,13.27,22.148,26.79,33.706,39.758c10.858,11.342,22.364,22.053,33.093,33.525c6.026,6.925,12.743,13.175,19.157,19.728
		c3.821,3.994,8.195,7.383,12.466,10.875c7.046,5.645,14.005,11.385,21.137,16.935c6.397,4.945,13.849,8.213,21.068,11.766
		c7.08,3.588,14.878,5.343,22.356,7.893c16.719,5.472,34.242,8.42,51.809,9.017c15.976-1.323,32.271-1.176,47.806-5.654
		c17.108-4.011,33.914-9.674,49.501-17.869c9.449-4.193,18.007-10.045,26.505-15.872c5.057-3.32,9.181-7.841,14.247-11.143
		c0.311,0.415,0.934,1.245,1.245,1.66c-0.268,5.844-1.642,11.558-2.23,17.376c-1.349,11.964-1.444,24.033-3.259,35.954
		c-1.893,7.417-2.351,15.094-2.602,22.719c-0.147,2.913,0.311,5.818,0.916,8.68c-0.078,1.582-0.225,3.173-0.311,4.772
		c0.147,6.415-1.452,12.812-0.96,19.192c3.847,6.337,9.086,11.757,13.279,17.886c3.743,5.68,9.207,9.881,13.339,15.232
		c3.32,4.245,5.057,9.423,7.339,14.247c1.902,4.011,3.605,8.117,4.928,12.371c0.804,5.904,1.686,11.826,3.268,17.592
		c1.003,3.648,2.395,7.244,2.628,11.066c0.259,4.314,0.182,8.636,0.156,12.967c-0.043,6.293-1.815,12.457-1.452,18.777
		c0.441,8.87-4.175,16.849-5.55,25.442c-2.412,3.683-4.668,7.469-6.484,11.48c-4.357,5.308-10.305,8.913-16.157,12.328
		c-9.76,4.608-19.918,8.74-30.724,9.959c-7.478-0.337-15.033,0.225-22.416-1.331c-9.777-1.893-19.589-3.726-29.194-6.38
		c-8.705-2.62-16.987-6.406-25.252-10.141c-8.066-3.614-15.103-9.042-22.459-13.858c-6.553-4.297-12.673-9.207-18.794-14.074
		c-11.221-9.475-22.745-18.716-32.315-29.92c-4.789-5.853-10.573-10.754-15.405-16.555c-6.475-7.115-12.578-14.549-18.483-22.14
		c-7.193-9.501-15.016-18.491-22.14-28.044c-6.665-8.403-12.319-17.549-19.045-25.909c-17.255-21.379-31.13-45.17-45.697-68.381
		c-5.974-8.325-11.342-17.048-16.33-25.987c-3.57-6.976-7.53-13.745-11.593-20.445c-3.933-6.38-6.881-13.279-10.357-19.892
		c-6.587-12.241-11.014-25.511-17.627-37.735c-2.179-4.15-3.242-8.749-5.014-13.062c-4.616-11.195-6.622-23.203-9.025-35.003
		C641.742,902.846,639.961,896.639,639.244,890.25z"/>
	<path fill="#74787B" stroke="#74787B" d="M543.856,983.226c6.345-3.389,13.633-4.478,20.67-5.438
		c8.671-0.354,17.29,1.115,25.909,1.893c5.671,0.916,11.766,0.873,16.849,3.916c-1.755,1.409-3.518,2.801-5.308,4.175
		c-10.538-2.861-21.474-1.902-32.245-2.066c-4.253,0.199-8.766,0.173-12.656,2.092c-3.008,2.187-1.789,6.371-0.752,9.311
		c0.571,1.47,1.184,2.939,1.876,4.374c2.429,4.487,6.224,8.109,8.256,12.846c3.233,6.518,7.875,12.181,11.584,18.422
		c5.645,8.377,12.198,16.079,18.215,24.18c3.467,5.611,8.308,10.149,12.025,15.569c5.515,7.02,9.527,15.085,15.284,21.941
		c6.103,7.27,10.754,15.604,16.944,22.805c4.686,5.394,8.723,11.429,14.229,16.062c5.17,4.288,9.942,9.051,14.212,14.247
		c8.947,10.538,20.86,17.783,31.433,26.479c5.403,3.761,9.7,8.801,14.887,12.82c8.221,6.389,14.653,14.722,22.667,21.353
		c4.547,3.804,8.282,8.481,12.959,12.163c6.224,5.005,11.965,10.59,18.336,15.422c8.42,6.371,16.607,13.538,26.739,17.065
		c5.68,2.006,11.204,4.435,16.754,6.786c8.308,3.596,16.927,6.432,25.139,10.261c16.019,6.077,32.28,11.584,47.823,18.855
		c6.129,3.078,13.019,4.011,19.382,6.535c9.682,3.735,20.16,3.838,30.352,4.893c6.449,0.069,12.89,1.496,19.339,0.571
		c5.896-0.752,11.843-0.112,17.765-0.545c3.933-0.285,7.78-1.193,11.584-2.204c10.806-1.219,20.964-5.351,30.724-9.959
		c5.853-3.415,11.8-7.02,16.157-12.328c2.178-0.761,3.916-2.308,5.403-4.028c3.337-3.838,8.057-6.328,10.737-10.754
		c2.844-4.66,6.466-8.852,8.688-13.875c2.343-5.092,4.262-10.348,6.06-15.639c2.792-5.541,5.109-11.411,5.481-17.67
		c1.124-11.757-0.942-23.462-3.441-34.908c-1.184-4.893-3.406-9.449-4.772-14.281c-1.902-6.708-5.801-12.561-9.103-18.621
		c-3.925-6.682-7.435-13.624-12.008-19.901c-3.25-4.495-6.086-9.362-10.175-13.175c-4.789-4.461-8.42-10.037-13.624-14.056
		c-3.7-2.766-6.726-6.544-11.04-8.377c-1.962-0.631-1.565-3.138-1.919-4.72c0.32-6.008,0.648-12.016,1.323-17.99
		c9.311,3.769,18.535,7.841,27.154,13.036c5.256,3.311,9.777,7.755,15.483,10.348c9.959,4.34,18.993,10.443,28.442,15.742
		c6.017,3.371,13.045,4.357,19.027,7.815c7.798,4.573,16.521,7.106,24.794,10.642c6.198,2.429,12.233,5.291,18.604,7.253
		c10.581,3.83,20.774,8.662,31.234,12.786c11.895,3.449,24.603,3.57,36.265,7.971c7.02,2.619,14.273,4.564,21.318,7.141
		c7.123,2.637,13.426,7.046,19.079,12.068c7.685,6.942,17.999,9.561,26.808,14.679c5.567,3.32,11.325,6.389,16.538,10.27
		c9.518,7.988,19.174,16.373,25.148,27.482c4.469,8.109,6.665,17.169,9.639,25.874c1.772,5.196,1.971,10.72,2.879,16.097
		c0.839,5.23,2.222,10.357,3.553,15.492c2.74,10.054,2.784,20.566,3.328,30.906c0.182,21.336,0.009,42.671,0.086,64.015
		c0.086,6.631-0.674,13.244-0.614,19.892c0.052,12.379-0.026,24.768,0.052,37.156c0.095,5.083-1.245,10.313,0.415,15.276
		c-0.882,1.746-1.815,3.536-1.98,5.533c-0.588,6.562-0.683,13.166-1.409,19.728c-1.608,9.458-3.683,18.967-3.104,28.632
		c-0.216,8.844,0.769,17.843-1.202,26.566c-2.023,7.996-1.236,16.322-2.36,24.448c-0.813,14.532-3.683,28.839-4.833,43.337
		c-0.51,4.893-1.28,9.786-1.029,14.731c4.175-3.916,4.124-9.847,4.867-15.085c1.046-6.622,3.622-12.898,4.66-19.52
		c1.608-10.141,3.406-20.246,5.04-30.378c1.971-8.351,1.807-16.987,3.078-25.442c0.614-9.613,2.222-19.114,3.371-28.658
		c0.908-6.855,0.623-13.97,3.181-20.506c3.043,7.685,5.861,15.457,9.051,23.082c1.928,6.285,2.913,12.82,5.109,19.045
		c3.665,14.143,9.578,27.534,14.178,41.375c4.573,12.431,9.527,24.733,13.572,37.355c3.933,11.316,8.239,22.494,11.964,33.888
		c1.081,3.484,3.121,6.803,3.173,10.538c-2.498,8.61-8.351,15.699-14.506,22.027c-4.616,4.677-8.628,9.933-13.495,14.368H972.721
		c-1.21-13.27-3.527-26.401-6.466-39.395c-1.072-8.187-3.752-16.01-5.343-24.085c-1.643-8.022-5.507-15.301-8.23-22.961
		c-3.372-8.749-5.654-17.852-8.705-26.704c-2.412-7.633-4.573-15.448-8.766-22.338c-3.882-6.406-6.899-13.27-10.469-19.831
		c-3.397-5.61-5.965-11.688-9.7-17.082c-4.253-6.337-7.979-13.002-11.29-19.875c-5.481-9.034-10.841-18.154-15.578-27.594
		c-2.351-4.772-5.567-9.043-7.754-13.884c-4.02-8.42-8.204-16.797-13.512-24.491c-5.282-8.731-10.919-17.229-16.883-25.494
		c-4.08-7.305-9.319-13.849-13.642-20.99c-2.982-4.668-6.691-8.809-10.512-12.794c-3.415-3.536-6.103-7.694-9.527-11.212
		c-8.1-7.772-15.267-16.443-22.874-24.673c-2.836-2.939-6.198-5.308-8.956-8.308c-5.057-5.896-11.065-10.849-16.192-16.676
		c-2.913-2.594-5.161-6.475-9.215-7.314c-0.311,6.311,4.642,10.772,7.668,15.751c3.397,5.455,6.795,10.918,10.944,15.846
		c10.642,13.573,19.33,28.511,29.012,42.74c4.564,8.273,10.002,16.01,14.748,24.18c3.674,5.922,6.7,12.224,10.434,18.128
		c4.348,6.769,7.305,14.316,11.74,21.05c4.219,7.953,8.42,15.941,12.25,24.102c7.832,15.033,15.976,29.903,24.638,44.478
		c4.106,7.668,8.913,14.93,12.838,22.693c5.014,7.512,9.008,15.63,13.858,23.246c7.711,14.031,13.927,28.813,20.523,43.397
		c6.121,13.192,11.065,26.886,16.918,40.199c8.074,16.598,14.869,33.828,24.033,49.89H556.097
		c-1.547-4.755-2.913-9.656-2.784-14.688c0.112-9.803,0.346-19.624-0.761-29.375c0.104-9.423-1.643-18.699-2.369-28.061
		c-1.556-7.875-0.96-15.932-1.954-23.851c-1.418-11.844-2.049-23.765-4.426-35.47c-0.916-11.238-2.766-22.381-3.32-33.646
		c-0.372-9.06,0.303-18.154-0.562-27.188c-0.856-12.328-1.003-24.724-2.879-36.948c-1.003-7.193-1.176-14.472-2.576-21.604
		c-1.037-6.976-3.864-13.59-4.322-20.653c-0.588-9.302-2.213-18.517-4.521-27.534c-3-11.446-5.809-22.935-8.973-34.329
		c-1.366-5.446-1.764-11.092-3.354-16.486c-2.472-8.653-4.279-17.471-6.786-26.116c-2.369-7.91-4.815-15.803-7.357-23.661
		c-2.066-6.553-4.789-12.89-6.449-19.563c-2.075-8.368-5.559-16.261-8.584-24.301c-3.363-8.299-5.896-16.892-9.345-25.148
		c-0.726-1.738-1.824-3.268-2.957-4.729c-0.285,2.04-0.043,4.089,0.588,6.06c5.792,21.146,10.469,42.559,15.924,63.791
		c2.204,7.46,2.844,15.258,4.832,22.779c2.101,8.455,2.654,17.169,3.622,25.796c2.637,15.319,5.204,30.707,5.74,46.276
		c0.821,10.374,2.325,20.73,2.377,31.165c0.069,5.766,1.141,11.489,0.847,17.272c-0.32,6.363,0.769,12.682,0.916,19.036
		c0.354,10.996,2.447,21.854,2.637,32.868c0.899,8.904,0.579,17.878,1.703,26.773c0.813,14.402,1.764,28.796,2.585,43.207
		c0.026,3.951-0.095,7.927,0.303,11.887c1.34,12.44-0.32,25.018,1.21,37.458c0.718,6.233,1.063,12.518,2.161,18.716
		c1.029,5.87,0.216,11.895,1.219,17.783c0.605,3.812,1.107,7.642,1.504,11.498c0.562,5.593,2.057,11.083,2.127,16.745
		c-0.147,8.161,2.801,16.045,2.135,24.24H467.85c1.703-9.146,1.66-18.44,1.66-27.698c1.098-13.529,1.919-27.067,2.524-40.622
		c0.104-6.181,1.539-12.224,1.928-18.379c0.648-11.307,2.68-22.485,4.461-33.646c0.017-15.206,0.38-30.465-1.115-45.619
		c-0.216-4.642,0.804-9.216,0.89-13.841c0.207-4.651-0.354-9.267-0.752-13.875c-0.45-5.17-0.121-10.357-0.138-15.518
		c0.026-6.363-1.202-12.665-0.934-19.027c0.32-8.057-0.605-16.088-1.107-24.111c-1.642-10.019-4.867-19.702-7.512-29.479
		c-2.576-10.002-4.824-20.22-9.397-29.54c-0.354,9.872,0.916,19.693,1.643,29.514c-0.441,8.965,1.202,17.852,0.899,26.816
		c-0.199,4.919,0.787,10.132-1.34,14.774c-1.936-7.072-2.74-14.411-5.118-21.37c-3.147-9.388-4.902-19.14-7.659-28.632
		c-1.911-7.849-4.66-15.474-6.017-23.445c-1.522-8.662-4.435-16.996-6.276-25.58c-0.951-4.513-2.637-8.801-4.184-13.123
		c-5.585-18.647-14.636-36.015-24.085-52.967c-3.735-5.706-7.046-11.74-11.636-16.832c-5.291-6.017-9.561-12.855-14.912-18.82
		c-4.02-4.34-7.876-8.826-12.112-12.95c-4.322-4.625-9.129-8.835-12.682-14.117c-3.804-5.74-9.968-9.086-15.18-13.348
		c-10.875-8.178-21.725-16.408-32.946-24.085c-7.391-4.392-14.757-8.818-21.967-13.495c-8.221-5.308-17.238-9.198-25.693-14.083
		c-5.464-2.619-10.685-5.766-16.348-7.936c4.521,7.175,11.818,11.947,16.78,18.768c4.85,6.328,11.204,11.264,16.339,17.333
		c2.628,3.121,5.585,5.948,8.126,9.155c4.262,5.766,9.406,10.815,13.754,16.538c9.44,10.14,19.823,19.382,29.073,29.713
		c6.103,6.302,12.449,12.431,17.592,19.581c4.945,6.267,9.872,12.544,15.241,18.465c5.308,7.106,10.685,14.178,15.578,21.595
		c4.625,6.855,10.063,13.14,14.307,20.255c4.841,8.057,9.665,16.192,13.166,24.94c1.928,4.711,5.161,8.723,7.348,13.313
		c4.452,10.4,8.87,20.825,12.647,31.51c3,7.383,3.795,15.405,6.354,22.935c5.887,18.258,6.276,37.623,10.348,56.27
		c2.023,12.06,4.867,23.99,6.259,36.161c0.951,7.236-0.035,14.593,1.297,21.802c1.254,10.988,2.801,21.949,3.683,32.989
		c1.703,12.025,2.784,24.206,2.274,36.369c-0.674,8.628,0.519,17.255,0.173,25.909c0.45,9.604-1.228,19.097-2.438,28.589
		c-0.7,8.783-5.014,16.927-4.608,25.866c-0.527,4.815,1.426,9.388,4.53,12.976H409.86c-0.545-9.233-0.467-18.483,0.683-27.664
		c1.573-12.345,0.89-24.776,1.011-37.173c0.467-18.466-1.833-36.914-5.723-54.938c-1.746-6.873-3.838-13.659-5.222-20.609
		c-1.011-5.049-2.17-10.097-4.219-14.843c-2.248-5.265-3.086-10.988-5.265-16.27c-3.821-9.328-6.008-19.209-9.362-28.701
		c-5.507-13.823-10.849-27.707-16.322-41.539c-2.542-7.685-5.559-15.258-9.847-22.148c-4.91-8.87-8.221-18.535-13.417-27.266
		c-3.968-8.178-9.12-15.673-13.564-23.583c-2.939-5.014-6.648-9.501-9.993-14.238c-4.936-6.345-9.207-13.175-14.264-19.425
		c-4.418-6.44-10.434-11.472-15.76-17.091c-5.524-5.93-12.699-9.872-19.244-14.515c-7.072-5.178-15.232-8.489-23.056-12.31
		c-7.314-2.844-14.307-6.561-21.967-8.42c-15.319-4.495-30.171-10.503-45.593-14.644c-13.011-2.412-26.272-2.749-39.403-4.158
		c-5.939-0.657-11.956-0.899-17.904-0.164c-7.945,1.003-16.097-0.337-23.903,1.789c3.493,1.599,7.4,1.539,11.1,2.352
		c8.429,1.712,16.615,4.487,25.07,6.086c8.965,1.677,17.687,4.349,26.574,6.328c15.068,3.83,30.205,7.599,44.789,13.045
		c10.547,3.579,21.439,6.216,31.606,10.841c8.455,3.709,17.195,7.046,24.811,12.371c5.213,3.683,10.78,6.916,15.388,11.394
		c5.144,4.945,10.478,9.777,14.722,15.552c8.835,11.964,18.37,23.462,25.883,36.343c5.628,9.008,10.357,18.535,15.206,27.984
		c2.948,6.224,5.412,12.699,9.094,18.561c4.608,7.582,6.838,16.226,10.296,24.327c3.691,7.633,5.671,15.932,9.164,23.661
		c4.201,9.57,7.288,19.563,10.305,29.557c1.85,6.345,4.945,12.293,6.147,18.837c0.96,5.654,4.348,10.504,5.507,16.105
		c1.098,4.928,1.962,9.916,3.311,14.8c3.043,10.875,5.299,21.975,6.665,33.188c1.962,11.342,0.856,22.892,1.15,34.337
		c-0.294,11.602,0.925,23.341-1.487,34.796c-0.847,9.112-0.104,18.301-0.372,27.448h-7.824c0.579-0.891,1.132-1.772,1.686-2.645
		c-3.657,0.536-7.201,1.556-10.728,2.645h-20.29c-0.086-6.752,0.32-13.521-0.406-20.238c-1.029-8.273-1.219-16.633-2.732-24.845
		c-1.029-10.002-3.804-19.702-5.17-29.643c-1.115-7.651-2.922-15.172-3.994-22.823c-1.47-11.913-3.596-23.739-5.879-35.522
		c-4.772-18.742-6.596-38.063-10.426-57.004c-2.481-14.653-7.063-28.831-10.236-43.337c-4.072-18.007-13.702-33.94-21.249-50.59
		c-3.7-6.795-6.285-14.143-10.331-20.748c-2.178-3.216-4.297-6.873-8.031-8.463c1.279,8.109,5.567,15.302,8.23,22.995
		c4.193,9.596,6,19.944,8.999,29.929c2.101,8.152,4.046,16.356,5.533,24.647c0.934,7.521,3.233,14.774,4.582,22.217
		c3.631,21.206,8.679,42.274,9.553,63.834c0.164,4.037,0.406,8.074,1.046,12.077c1.072,6.423,0.536,12.967,1.228,19.442
		c0.951,9.034,0.069,18.128,0.657,27.188c2.637,20.523,2.542,41.271,4.582,61.854c0.294,9.734,2.127,19.313,2.749,29.03h-64.266
		c-2.274-8.636-6.051-16.745-8.956-25.157c-3.069-8.481-6.224-16.918-9.06-25.476c-2.222-6.847-5.222-13.408-7.469-20.246
		c-3.899-10.771-8.723-21.171-13.227-31.701c-1.452-3.346-2.836-6.752-4.893-9.777c-8.844-12.172-17.722-24.318-26.799-36.317
		c-5.87-7.106-11.619-14.316-17.515-21.396c-6.925-6.717-15.276-11.757-22.65-17.964c-4.219-3.32-8.048-7.193-12.725-9.881
		c-0.043,3.717,1.859,6.968,4.418,9.544c5.325,6.198,12.137,10.901,17.515,17.056c6.043,7.236,12.354,14.264,17.765,22.01
		c14.273,18.085,25.71,38.159,36.87,58.241c3.657,8.066,8.55,15.526,11.567,23.877c2.542,6.172,5.109,12.345,7.27,18.673
		c2.533,7.4,5.879,14.627,6.994,22.442c1.176,8.792,3.622,17.35,5.256,26.073h-27.551c-2.49-7.365-5.775-14.385-9.336-21.275
		c-3.32-8.394-7.798-16.244-12.284-24.059c-4.34-7.089-9.682-13.503-13.944-20.635c-4.115-6.976-9.553-13.028-13.806-19.909
		c-4.072-6.717-9.172-12.708-13.849-19.001c-8.178-11.334-16.745-22.39-25.537-33.257c-4.694-5.913-9.682-11.619-15.172-16.814
		c-5.879-5.662-10.694-12.319-16.52-18.033c-6.121-5.118-10.702-11.766-16.823-16.901c-6.829-7.106-15.604-11.973-22.235-19.278
		c-4.037-4.348-8.792-7.927-13.114-11.965c-4.686-4.322-10.746-6.579-16.14-9.829c-9.094-5.446-18.44-10.46-27.75-15.526v-204.313
		c5.835-9.613,13.65-17.713,20.99-26.142c6.19-6.631,14.083-11.264,21.068-16.961c5.386-4.098,9.847-9.207,14.644-13.927
		c6.077-6.034,12.111-12.129,18.768-17.532c11.385-8.982,22.684-18.465,35.928-24.621c8.04-3.259,15.924-7.011,24.301-9.371
		c8.429-2.507,17.307-1.314,25.961-1.608c9.639-0.406,18.777,3.104,28.174,4.634c10.262,2.369,20.687,4.4,30.465,8.446
		c3.363,1.772,6.804-0.294,9.786-1.85c5.334-2.948,11.074-5.031,16.607-7.547c10.089-4.443,20.869-7.002,30.931-11.498
		c5.879-2.334,12.008-3.977,17.973-6.06c8.463-2.792,17.463-3.743,25.684-7.288c7.703-3.008,14.869-7.167,22.451-10.443
		c6.492-2.948,13.08-5.706,19.399-9.008c8.826-4.573,17.108-10.106,25.84-14.861c11.377-6.302,21.094-15.379,33.17-20.436
		c10.504-4.513,20.808-9.518,31.606-13.313c5.049-1.833,10.14-3.553,15.051-5.732c8.749-3.786,18.007-6.198,27.318-8.118
		c6.259-1.228,11.878-4.374,17.895-6.345c6.613-2.36,13.987-3.614,19.278-8.619c-0.32,5.922,1.003,11.757,1.746,17.61
		c0.519,4.115,1.902,8.109,4.305,11.515c-1.867-7.141-4.452-14.29-4.011-21.777c-0.009-2.766,1.228-6.233-1.565-8.066
		C536.629,990.695,539.067,985.707,543.856,983.226 M1077.635,1208.625c-0.441,4.651,0.156,9.328-0.251,13.996
		c-1.331,9.63-4.011,19.01-6.181,28.476c3.839-9.259,5.187-19.278,7.046-29.055
		C1078.577,1217.615,1079.546,1212.8,1077.635,1208.625 M210.708,1211.97c7.59,6.674,16.719,11.213,24.802,17.229
		c8.152,6.328,16.737,12.068,25.122,18.094c7.841,5.602,14.108,12.976,21.033,19.598c4.954,4.651,8.429,10.555,12.967,15.552
		c13.279,13.624,24.128,29.367,37.285,43.112c5.766,5.343,9.726,12.241,14.394,18.509c4.564,7.106,8.783,14.454,12.509,22.036
		c2.516,4.409,5.247,8.688,7.461,13.27c3.147,6.57,7.219,12.656,10.028,19.399c4.271,7.469,8.861,14.757,13.244,22.166
		c3.786,5.904,6.536,12.388,10.201,18.362c3.57,6.233,7.504,12.25,10.711,18.69c5.031,8.368,8.463,17.653,13.944,25.753
		c-0.112-6.726-3.32-12.812-5.023-19.183c-2.49-8.792-6.527-17.074-8.541-26.004c-4.686-15.18-8.628-30.681-15.31-45.152
		c-4.201-9.276-8.342-18.578-13.036-27.612c-7.149-13.313-15.734-25.762-23.704-38.574c-4.815-6.916-9.336-14.134-15.258-20.168
		c-3.873-4.219-7.288-8.844-11.299-12.933c-5.939-5.87-11.844-11.774-17.722-17.713c-11.774-11.342-24.612-21.5-36.983-32.176
		c-6.025-4.435-11.999-8.991-18.612-12.535c-5.879-3.64-12.501-5.784-18.552-9.086c-8.36-3.596-16.892-6.769-25.338-10.141
		C213.656,1211.936,212.143,1211.183,210.708,1211.97 M1289.798,1237.196c-0.061,5.23,2.153,10.089,3.25,15.129
		c2.948,10.443,4.66,21.171,7.02,31.753c1.124,5.083,0.925,10.348,1.867,15.474c2.395,14.35,4.478,28.744,5.965,43.216
		c0.242,9.276,1.954,18.422,2.594,27.672c2.161,14.005,3.769,28.165,3.371,42.36c0.052,10.08-0.052,20.177,0.035,30.266
		c-0.441,6.613-1.055,13.218-1.66,19.823c-0.268,3.821,0.934,7.616,0.346,11.437c-0.666,4.547-0.199,9.138-0.441,13.711
		c-0.925,10.797-1.669,21.655-3.735,32.315c-1.314,5.265-2.092,10.633-2.948,15.993c-1.859,8.645-3.769,17.342-4.409,26.177
		c2.075-1.366,2.075-4.063,2.689-6.216c1.115-6.06,3.121-11.973,3.475-18.154c0.527-7.426,2.196-14.705,3.804-21.958
		c1.85-9.604,2.196-19.425,3.735-29.081c1.642-9.138,0.398-18.431,1.089-27.638c0.061-8.411,2.256-16.659,1.919-25.07
		c-0.086-9.259-0.441-18.543,0.458-27.767c0.182-3.726-0.683-7.417-0.51-11.135c0.354-7.841-1.668-15.517-1.824-23.333
		c-0.121-7.694-0.916-15.336-1.461-22.995c-1.081-5.922-1.928-11.87-2.697-17.826c-0.622-5.394-0.398-10.927-2.083-16.14
		c-1.876-5.412-1.867-11.195-3.043-16.754c-1.279-6.363-2.118-12.812-3.458-19.157c-2.879-10.443-5.481-20.998-9.388-31.122
		C1292.279,1244.561,1291.683,1240.628,1289.798,1237.196 M908.455,1318.778c8.697,0.908,17.368,2.645,26.151,2.896
		c10.011-0.38,19.952,1.902,29.972,0.657c5.853-0.882,11.818-0.579,17.636-1.746c-1.305-0.622-2.715-0.986-4.132-0.657
		c-7.85,0.994-15.725,1.936-23.644,1.53c-10.771,0.458-21.465-1.003-32.185-1.712
		C917.644,1319.478,913.08,1318.285,908.455,1318.778 M1206.747,1326.109c1.997,3.32,4.703,6.285,5.792,10.089
		c1.34,4.305,2.93,8.533,4.694,12.699c2.697,6.224,6.596,11.818,9.786,17.8c4.106,7.4,8.844,14.472,12.38,22.191
		c2.101,4.4,5.049,8.308,7.288,12.639c3.769,6.276,6.458,13.097,9.786,19.607c2.706,7.988,7.677,15.085,9.337,23.454
		c1.617,8.506,5.126,16.581,5.922,25.252c1.521,8.982,0.035,18.249,2.325,27.136c0.692,2.282,2.144,4.297,2.585,6.674
		c-0.285,1.971-1.314,3.804-1.34,5.827c0.328,1.815,1.521,3.311,2.533,4.833c1.521-4.115,1.504-8.55,2.152-12.829
		c0.7-6.25,2.308-12.336,3.19-18.552c0.804-4.971,0.458-10.037,1.202-15.008c0.657-3.977-0.346-7.919-0.484-11.869
		c-0.156-3.207,0.052-6.484-0.942-9.561c-3.691-12.181-10.573-22.995-15.492-34.649c-3.804-7.46-6.864-15.276-11.316-22.382
		c-3.363-6.544-6.752-13.114-11.48-18.785c-7.798-11.359-16.002-22.468-25.165-32.764c-3.501-3.752-5.904-8.481-9.89-11.74
		C1208.787,1325.21,1207.654,1325.547,1206.747,1326.109 M566.523,1401.466c0.398,4.616,0.985,9.224,1.694,13.814
		c0.864,5.178,0.579,10.478,1.349,15.682c0.769,5.429,1.262,10.91,1.046,16.408c0.017,22.485-0.052,44.979,0.009,67.456
		c1.513,11.748,0.622,23.609,0.83,35.427c-0.406,11.264,1.141,22.459,1.712,33.698c-0.277,7.262,1.461,14.385,1.677,21.63
		c0.121,1.962-0.069,4.245,1.798,5.516c1.781-3.346,2.887-7.002,3.467-10.728c2.239-17.402,4.08-34.848,6.553-52.207
		c0.865-5.844-0.156-11.757,0.657-17.592c1.815-11.307-1.15-22.598-1.15-33.923c0.026-3.008-0.086-6.017-0.458-8.991
		c-1.253-9.847-1.833-19.762-3.371-29.565c-3.372-20.048-9.492-39.464-14.627-59.097
		C566.86,1399.538,566.247,1400.386,566.523,1401.466 M120.818,1403.048c4.132,5.818,10.547,9.371,15.025,14.861
		c6.976,6.864,14.281,13.382,21.578,19.909c7.469,6.337,13.979,13.685,21.068,20.419c2.965,3.078,5.827,6.285,9.181,8.965
		c2.792,2.153,4.288,5.49,6.968,7.763c7.53,6.803,11.99,16.123,18.777,23.574c3.847,4.219,8.342,7.867,11.524,12.673
		c5.023,5.974,10.037,11.99,14.325,18.543c2.421,3.717,4.037,7.919,6.544,11.601c3.259,4.755,6.804,9.319,10.244,13.953
		c3.717,5.023,6.752,10.495,10.244,15.682c2.023,3.017,3.518,6.44,6.198,8.991c1.15-2.256,0.043-4.772-0.303-7.063
		c-1.902-7.78-2.55-15.837-5.152-23.436c-2.818-7.763-4.807-15.872-8.8-23.16c-4.158-9.492-8.904-18.699-13.564-27.949
		c-3.268-5.749-6.449-11.748-11.437-16.218c-3.337-3.034-5.87-6.795-9.051-9.95c-6.665-6.596-13.296-13.227-19.892-19.892
		c-3.596-3.959-8.169-6.795-12.163-10.305c-4.469-3.856-9.993-6.103-14.878-9.328c-9.207-6.449-18.414-12.976-28.2-18.509
		c-7.573-2.913-14.558-7.132-22.235-9.76C124.873,1403.757,122.936,1402.469,120.818,1403.048z"/>
	<path fill="#68696D" stroke="#68696D" d="M557.074,987.799c3.89-1.919,8.403-1.893,12.656-2.092
		c10.772,0.164,21.707-0.795,32.245,2.066c-8.265,6.121-16.08,12.855-24.647,18.569c0.735-0.951,1.435-1.911,2.196-2.827
		c3.112-2.619,6.536-4.893,9.198-8.005c-8.697-1.79-17.61-0.847-26.402-0.623c-2.222-0.043-4.158,1.115-6,2.222
		C555.285,994.171,554.066,989.987,557.074,987.799z"/>
	<path fill="#595D60" stroke="#595D60" d="M556.322,997.11c1.841-1.107,3.778-2.265,6-2.222c8.792-0.225,17.705-1.167,26.402,0.623
		c-2.663,3.112-6.086,5.386-9.198,8.005c-5.178-1.789-10.529-3-15.63-5.014c-2.507-1.461-4.141,1.504-5.697,2.982
		C557.506,1000.049,556.893,998.58,556.322,997.11z"/>
	<path fill="#64676A" stroke="#64676A" d="M533.802,995.018c2.792,1.833,1.556,5.299,1.565,8.066
		c-0.441,7.487,2.144,14.636,4.011,21.777c-2.403-3.406-3.786-7.4-4.305-11.515c-0.743-5.852-2.066-11.688-1.746-17.61
		L533.802,995.018z"/>
	<path fill="#505153" stroke="#505153" d="M558.198,1001.484c1.556-1.478,3.19-4.443,5.697-2.982
		c5.1,2.014,10.452,3.225,15.63,5.014c-0.761,0.916-1.461,1.876-2.196,2.827c-3.544,2.775-7.158,5.455-10.875,7.988
		C564.422,1009.593,560.627,1005.971,558.198,1001.484z"/>
	<path fill="#D4C6A9" stroke="#D4C6A9" d="M999.892,1086.023c0.251-7.625,0.709-15.301,2.602-22.719
		c0.017,1.461,0.095,2.939,0.104,4.426c-0.674,5.974-1.003,11.982-1.323,17.99c-0.061,2.991-0.112,5.991-0.467,8.982
		C1000.203,1091.841,999.745,1088.936,999.892,1086.023z"/>
	<path fill="#58595B" stroke="#58595B" d="M1001.275,1085.72c0.354,1.582-0.043,4.089,1.919,4.72c4.314,1.833,7.34,5.61,11.04,8.377
		c5.204,4.02,8.835,9.596,13.624,14.056c4.089,3.813,6.924,8.68,10.175,13.175c4.573,6.276,8.083,13.218,12.008,19.901
		c3.302,6.06,7.201,11.913,9.103,18.621c1.366,4.833,3.588,9.388,4.772,14.281c2.498,11.446,4.564,23.151,3.441,34.908
		c-0.372,6.259-2.688,12.129-5.481,17.67c-1.495-27.231-7.737-54.082-16.572-79.827c-2.395-7.538-8.671-12.699-12.76-19.218
		c-4.694-7.279-10.953-13.33-15.898-20.411c-2.965-4.184-6.363-8.031-9.587-12.008c-1.703-2.17-3.882-3.89-6.25-5.265
		C1001.162,1091.711,1001.214,1088.711,1001.275,1085.72z"/>
	<path fill="#616266" stroke="#616266" d="M1000.808,1094.702c2.369,1.375,4.547,3.095,6.25,5.265
		c3.225,3.977,6.622,7.824,9.587,12.008c4.945,7.08,11.204,13.131,15.898,20.411c4.089,6.518,10.365,11.679,12.76,19.218
		c8.835,25.745,15.077,52.595,16.572,79.827c-1.798,5.291-3.717,10.547-6.06,15.639c-2.222,5.023-5.844,9.215-8.688,13.875
		c-0.475,0.043-1.418,0.138-1.893,0.19c1.591-5.922,4.417-11.463,5.42-17.532c0.588-3.423,1.219-6.829,1.833-10.236
		c0.994-5.585-0.285-11.204-0.579-16.78c-0.977-10.296-1.738-20.627-3.579-30.802c-1.011-6.259-3.406-12.155-5.213-18.189
		c-2.87-8.576-7.002-16.719-12.129-24.154c-8.584-13.979-17.333-27.914-27.448-40.847c-0.96-1.107-2.006-2.118-3.043-3.121
		C1000.583,1097.875,1000.73,1096.284,1000.808,1094.702z"/>
	<path fill="#696C6F" stroke="#696C6F" d="M1000.497,1099.474c1.037,1.003,2.083,2.014,3.043,3.121
		c10.115,12.933,18.863,26.868,27.448,40.847c5.126,7.435,9.259,15.578,12.129,24.154c1.807,6.034,4.201,11.93,5.213,18.189
		c1.841,10.175,2.602,20.506,3.579,30.802c0.294,5.576,1.573,11.195,0.579,16.78c-0.614,3.406-1.245,6.812-1.833,10.236
		c-1.003,6.069-3.83,11.61-5.42,17.532c0.475-0.052,1.418-0.147,1.893-0.19c-2.68,4.426-7.4,6.916-10.737,10.754
		c-1.487,1.72-3.225,3.268-5.403,4.028c1.815-4.011,4.072-7.798,6.484-11.48c5.023-5.714,6.172-13.46,8.187-20.532
		c1.651-5.74,1.539-11.74,1.487-17.653c0.277-10.115-1.98-20.039-3-30.05c-0.605-6.233-2.775-12.137-5.723-17.61
		c-1.323-4.253-3.026-8.36-4.928-12.371c-2.282-4.824-4.02-10.002-7.339-14.247c-4.132-5.351-9.596-9.553-13.339-15.232
		c-4.193-6.129-9.432-11.55-13.279-17.886C999.044,1112.286,1000.644,1105.889,1000.497,1099.474z"/>
	<path fill="#6B6F72" stroke="#6B6F72" d="M242.746,1133.699c5.662,2.17,10.884,5.317,16.348,7.936
		c8.455,4.884,17.471,8.775,25.693,14.083c7.21,4.677,14.575,9.103,21.967,13.495c11.221,7.677,22.07,15.907,32.946,24.085
		c5.213,4.262,11.377,7.608,15.18,13.348c3.553,5.282,8.36,9.492,12.682,14.117c4.236,4.124,8.092,8.61,12.112,12.95
		c5.351,5.965,9.622,12.803,14.912,18.82c4.59,5.092,7.901,11.126,11.636,16.832c9.449,16.953,18.5,34.32,24.085,52.967
		c1.547,4.323,3.233,8.61,4.184,13.123c1.841,8.584,4.755,16.918,6.276,25.58c1.357,7.971,4.106,15.595,6.017,23.445
		c2.758,9.492,4.513,19.244,7.659,28.632c2.377,6.959,3.181,14.299,5.118,21.37c2.127-4.642,1.141-9.855,1.34-14.774
		c0.303-8.965-1.34-17.852-0.899-26.816c-0.726-9.821-1.997-19.641-1.643-29.514c4.573,9.319,6.821,19.537,9.397,29.54
		c2.645,9.777,5.87,19.46,7.512,29.479c0.501,8.022,1.426,16.054,1.107,24.111c-0.268,6.363,0.96,12.665,0.934,19.027
		c0.017,5.161-0.311,10.348,0.138,15.518c0.398,4.608,0.96,9.224,0.752,13.875c-0.086,4.625-1.107,9.198-0.89,13.841
		c1.496,15.154,1.132,30.413,1.115,45.619c-1.781,11.161-3.812,22.338-4.461,33.646c-0.389,6.155-1.824,12.198-1.928,18.379
		c-0.605,13.555-1.426,27.093-2.524,40.622c0,9.259,0.043,18.552-1.66,27.698h-17.281c-3.104-3.588-5.057-8.161-4.53-12.976
		c-0.406-8.939,3.908-17.082,4.608-25.866c1.21-9.492,2.887-18.984,2.438-28.589c0.346-8.654-0.847-17.281-0.173-25.909
		c0.51-12.163-0.571-24.344-2.274-36.369c-0.882-11.04-2.429-22.001-3.683-32.989c-1.331-7.21-0.346-14.567-1.297-21.802
		c-1.392-12.172-4.236-24.102-6.259-36.161c-4.072-18.647-4.461-38.012-10.348-56.27c-2.559-7.53-3.354-15.552-6.354-22.935
		c-3.778-10.685-8.195-21.111-12.647-31.51c-2.187-4.591-5.42-8.602-7.348-13.313c-3.501-8.749-8.325-16.883-13.166-24.94
		c-4.245-7.115-9.682-13.4-14.307-20.255c-4.893-7.417-10.27-14.489-15.578-21.595c-5.368-5.922-10.296-12.198-15.241-18.465
		c-5.144-7.149-11.489-13.279-17.592-19.581c-9.25-10.331-19.633-19.572-29.073-29.713c-4.348-5.723-9.492-10.771-13.754-16.538
		c-2.542-3.207-5.498-6.034-8.126-9.155c-5.135-6.069-11.489-11.005-16.339-17.333
		C254.563,1145.646,247.267,1140.875,242.746,1133.699z"/>
	<path fill="#B29F76" stroke="#B29F76" d="M1038.422,1178.402c2.948,5.472,5.118,11.377,5.723,17.61
		c1.02,10.011,3.276,19.935,3,30.05c0.052,5.913,0.164,11.913-1.487,17.653c-2.014,7.072-3.164,14.817-8.187,20.532
		c1.375-8.593,5.991-16.572,5.55-25.442c-0.363-6.319,1.409-12.483,1.452-18.777c0.026-4.331,0.104-8.654-0.156-12.967
		c-0.234-3.821-1.625-7.417-2.628-11.066C1040.108,1190.228,1039.226,1184.307,1038.422,1178.402z"/>
	<path fill="#6B6F72" stroke="#6B6F72" d="M472.406,1207.44c-0.631-1.971-0.873-4.02-0.588-6.06c1.132,1.461,2.23,2.991,2.957,4.729
		c3.449,8.256,5.982,16.849,9.345,25.148c3.026,8.04,6.51,15.932,8.584,24.301c1.66,6.674,4.383,13.011,6.449,19.563
		c2.542,7.858,4.988,15.751,7.357,23.661c2.507,8.645,4.314,17.463,6.786,26.116c1.591,5.394,1.988,11.04,3.354,16.486
		c3.164,11.394,5.974,22.883,8.973,34.329c2.308,9.017,3.933,18.232,4.521,27.534c0.458,7.063,3.285,13.676,4.322,20.653
		c1.401,7.132,1.573,14.411,2.576,21.604c1.876,12.224,2.023,24.621,2.879,36.948c0.865,9.034,0.19,18.128,0.562,27.188
		c0.553,11.264,2.403,22.408,3.32,33.646c2.377,11.705,3.008,23.627,4.426,35.47c0.994,7.919,0.398,15.976,1.954,23.851
		c0.726,9.362,2.472,18.638,2.369,28.061c1.107,9.751,0.873,19.572,0.761,29.375c-0.13,5.031,1.236,9.933,2.784,14.688H524.25
		c0.666-8.195-2.282-16.079-2.135-24.24c-0.069-5.662-1.565-11.152-2.127-16.745c-0.398-3.856-0.899-7.685-1.504-11.498
		c-1.003-5.887-0.19-11.913-1.219-17.783c-1.098-6.198-1.444-12.483-2.161-18.716c-1.53-12.44,0.13-25.018-1.21-37.458
		c-0.398-3.959-0.277-7.936-0.303-11.887c-0.821-14.411-1.772-28.805-2.585-43.207c-1.124-8.896-0.804-17.869-1.703-26.773
		c-0.19-11.014-2.282-21.872-2.637-32.868c-0.147-6.354-1.236-12.673-0.916-19.036c0.294-5.783-0.778-11.506-0.847-17.272
		c-0.052-10.434-1.556-20.791-2.377-31.165c-0.536-15.569-3.104-30.957-5.74-46.276c-0.968-8.628-1.521-17.342-3.622-25.796
		c-1.988-7.521-2.628-15.319-4.832-22.779C482.875,1249.999,478.198,1228.586,472.406,1207.44z"/>
	<path fill="#505153" stroke="#505153" d="M1077.635,1208.625c1.911,4.176,0.942,8.991,0.614,13.417
		c-1.859,9.777-3.207,19.797-7.046,29.055c2.17-9.466,4.85-18.846,6.181-28.476
		C1077.791,1217.952,1077.194,1213.276,1077.635,1208.625z"/>
	<path fill="#6B6F72" stroke="#6B6F72" d="M210.708,1211.97c1.435-0.787,2.948-0.034,4.322,0.493
		c8.446,3.372,16.979,6.544,25.338,10.141c6.051,3.302,12.673,5.446,18.552,9.086c6.613,3.544,12.587,8.1,18.612,12.535
		c12.371,10.676,25.208,20.834,36.983,32.176c5.879,5.939,11.783,11.844,17.722,17.713c4.011,4.089,7.426,8.714,11.299,12.933
		c5.922,6.034,10.443,13.253,15.258,20.168c7.971,12.812,16.555,25.26,23.704,38.574c4.694,9.034,8.835,18.336,13.036,27.612
		c6.683,14.472,10.625,29.972,15.31,45.152c2.014,8.93,6.051,17.212,8.541,26.004c1.703,6.371,4.91,12.457,5.023,19.183
		c-5.481-8.1-8.913-17.385-13.944-25.753c-3.207-6.441-7.141-12.457-10.711-18.69c-3.665-5.974-6.414-12.457-10.201-18.362
		c-4.383-7.409-8.973-14.696-13.244-22.166c-2.81-6.743-6.881-12.829-10.028-19.399c-2.213-4.582-4.945-8.861-7.461-13.27
		c-3.726-7.582-7.945-14.93-12.509-22.036c-4.668-6.267-8.628-13.166-14.394-18.509c-13.158-13.745-24.007-29.488-37.285-43.112
		c-4.539-4.997-8.014-10.901-12.967-15.552c-6.925-6.622-13.192-13.996-21.033-19.598c-8.386-6.026-16.97-11.766-25.122-18.094
		C227.427,1223.183,218.298,1218.644,210.708,1211.97z"/>
	<path fill="#63676A" stroke="#63676A" d="M1289.798,1237.196c1.885,3.432,2.481,7.365,3.959,10.979
		c3.908,10.123,6.51,20.679,9.388,31.122c1.34,6.345,2.178,12.795,3.458,19.157c1.176,5.559,1.167,11.342,3.043,16.754
		c1.686,5.213,1.461,10.746,2.083,16.14c0.769,5.956,1.617,11.904,2.697,17.826c0.545,7.659,1.34,15.301,1.461,22.995
		c0.156,7.815,2.178,15.492,1.824,23.333c-0.173,3.717,0.692,7.409,0.51,11.135c-0.899,9.224-0.545,18.509-0.458,27.767
		c0.337,8.411-1.859,16.659-1.919,25.07c-0.692,9.207,0.553,18.5-1.089,27.638c-1.539,9.656-1.885,19.477-3.735,29.081
		c-1.608,7.253-3.276,14.532-3.804,21.958c-0.354,6.181-2.36,12.094-3.475,18.154c-0.614,2.153-0.614,4.85-2.689,6.216
		c0.64-8.835,2.55-17.532,4.409-26.177c0.856-5.36,1.634-10.728,2.948-15.993c2.066-10.659,2.81-21.517,3.735-32.315
		c0.242-4.573-0.225-9.164,0.441-13.711c0.588-3.821-0.614-7.616-0.346-11.437c0.605-6.605,1.219-13.209,1.66-19.823
		c-0.087-10.089,0.017-20.186-0.035-30.266c0.398-14.195-1.21-28.355-3.371-42.36c-0.64-9.25-2.351-18.396-2.594-27.672
		c-1.487-14.472-3.57-28.865-5.965-43.216c-0.942-5.126-0.743-10.391-1.867-15.474c-2.36-10.581-4.072-21.31-7.02-31.753
		C1291.951,1247.285,1289.738,1242.426,1289.798,1237.196z"/>
	<path fill="#6B6F72" stroke="#6B6F72" d="M121.432,1255.03c5.948-0.735,11.965-0.493,17.904,0.164
		c13.132,1.409,26.393,1.746,39.403,4.158c15.422,4.141,30.274,10.149,45.593,14.644c7.659,1.859,14.653,5.576,21.967,8.42
		c7.824,3.821,15.984,7.132,23.056,12.31c6.544,4.642,13.719,8.584,19.244,14.515c5.325,5.619,11.342,10.651,15.76,17.091
		c5.057,6.25,9.328,13.08,14.264,19.425c3.346,4.737,7.054,9.224,9.993,14.238c4.443,7.91,9.596,15.405,13.564,23.583
		c5.196,8.731,8.507,18.396,13.417,27.266c4.288,6.89,7.305,14.463,9.847,22.148c5.472,13.832,10.815,27.716,16.322,41.539
		c3.354,9.492,5.541,19.373,9.362,28.701c2.179,5.282,3.017,11.005,5.265,16.27c2.049,4.746,3.207,9.795,4.219,14.843
		c1.383,6.95,3.475,13.737,5.222,20.609c3.89,18.025,6.19,36.473,5.723,54.938c-0.121,12.397,0.562,24.828-1.011,37.173
		c-1.15,9.181-1.228,18.431-0.683,27.664h-17.402c0.268-9.146-0.475-18.336,0.372-27.448c2.412-11.454,1.193-23.194,1.487-34.796
		c-0.294-11.446,0.813-22.995-1.15-34.337c-1.366-11.212-3.622-22.313-6.665-33.188c-1.349-4.884-2.213-9.873-3.311-14.8
		c-1.158-5.602-4.547-10.452-5.507-16.105c-1.202-6.544-4.297-12.492-6.147-18.837c-3.017-9.993-6.103-19.987-10.305-29.557
		c-3.493-7.729-5.472-16.028-9.164-23.661c-3.458-8.1-5.688-16.745-10.296-24.327c-3.683-5.861-6.147-12.336-9.094-18.561
		c-4.85-9.449-9.579-18.976-15.206-27.984c-7.512-12.881-17.048-24.379-25.883-36.343c-4.245-5.775-9.579-10.607-14.722-15.552
		c-4.608-4.478-10.175-7.711-15.388-11.394c-7.616-5.325-16.356-8.662-24.811-12.371c-10.166-4.625-21.059-7.262-31.606-10.841
		c-14.584-5.446-29.721-9.215-44.789-13.045c-8.887-1.98-17.61-4.651-26.574-6.328c-8.455-1.599-16.641-4.374-25.07-6.086
		c-3.7-0.813-7.608-0.752-11.1-2.352C105.335,1254.693,113.487,1256.033,121.432,1255.03z"/>
	<path fill="#6B6F72" stroke="#6B6F72" d="M759.105,1289.031c4.054,0.839,6.302,4.72,9.215,7.314
		c5.126,5.827,11.135,10.78,16.192,16.676c2.758,3,6.121,5.369,8.956,8.308c7.607,8.23,14.774,16.901,22.874,24.673
		c3.423,3.519,6.112,7.677,9.527,11.212c3.821,3.985,7.53,8.126,10.512,12.794c4.322,7.141,9.561,13.685,13.642,20.99
		c5.965,8.264,11.601,16.762,16.883,25.494c5.308,7.694,9.492,16.071,13.512,24.491c2.187,4.841,5.403,9.112,7.754,13.884
		c4.737,9.44,10.097,18.561,15.578,27.594c3.311,6.873,7.037,13.538,11.29,19.875c3.735,5.394,6.302,11.472,9.7,17.082
		c3.57,6.562,6.587,13.426,10.469,19.831c4.193,6.89,6.354,14.705,8.766,22.338c3.052,8.852,5.334,17.955,8.705,26.704
		c2.723,7.659,6.587,14.938,8.23,22.961c1.591,8.074,4.271,15.898,5.343,24.085c2.939,12.993,5.256,26.125,6.466,39.395h-4.011
		c-9.164-16.062-15.958-33.292-24.033-49.89c-5.853-13.313-10.797-27.007-16.918-40.199c-6.596-14.584-12.812-29.367-20.523-43.397
		c-4.85-7.616-8.844-15.734-13.858-23.246c-3.925-7.763-8.731-15.025-12.838-22.693c-8.662-14.575-16.806-29.444-24.638-44.478
		c-3.83-8.161-8.031-16.149-12.25-24.102c-4.435-6.734-7.391-14.281-11.74-21.05c-3.735-5.905-6.76-12.207-10.434-18.128
		c-4.746-8.169-10.184-15.907-14.748-24.18c-9.682-14.229-18.37-29.168-29.012-42.74c-4.15-4.928-7.547-10.391-10.944-15.846
		C763.748,1299.802,758.794,1295.342,759.105,1289.031z"/>
	<path fill="#505153" stroke="#505153" d="M908.455,1318.778c4.625-0.493,9.189,0.7,13.797,0.968
		c10.72,0.709,21.413,2.17,32.185,1.712c7.919,0.406,15.794-0.536,23.644-1.53c1.418-0.329,2.827,0.035,4.132,0.657
		c-5.818,1.167-11.783,0.865-17.636,1.746c-10.019,1.245-19.961-1.037-29.972-0.657
		C925.822,1321.423,917.151,1319.686,908.455,1318.778z"/>
	<path fill="#6B6F72" stroke="#6B6F72" d="M1206.747,1326.109c0.908-0.562,2.04-0.899,2.862,0.061
		c3.985,3.259,6.389,7.988,9.89,11.74c9.164,10.296,17.368,21.405,25.165,32.764c4.729,5.671,8.118,12.241,11.48,18.785
		c4.452,7.106,7.512,14.921,11.316,22.382c4.919,11.653,11.8,22.468,15.492,34.649c0.994,3.078,0.787,6.354,0.942,9.561
		c0.138,3.951,1.141,7.893,0.484,11.869c-0.743,4.971-0.398,10.037-1.202,15.008c-0.882,6.216-2.49,12.302-3.19,18.552
		c-0.648,4.279-0.631,8.714-2.152,12.829c-1.011-1.521-2.204-3.017-2.533-4.833c0.026-2.023,1.055-3.856,1.34-5.827
		c-0.441-2.377-1.893-4.391-2.585-6.674c-2.291-8.887-0.804-18.154-2.325-27.136c-0.795-8.671-4.305-16.745-5.922-25.252
		c-1.66-8.368-6.631-15.466-9.337-23.454c-3.328-6.51-6.017-13.33-9.786-19.607c-2.239-4.331-5.187-8.239-7.288-12.639
		c-3.536-7.72-8.273-14.792-12.38-22.191c-3.19-5.982-7.089-11.576-9.786-17.8c-1.764-4.167-3.354-8.394-4.694-12.699
		C1211.449,1332.394,1208.744,1329.428,1206.747,1326.109z"/>
	<path fill="#6B6F72" stroke="#6B6F72" d="M276.85,1361.518c3.735,1.591,5.853,5.247,8.031,8.463
		c4.046,6.605,6.631,13.953,10.331,20.748c7.547,16.65,17.177,32.583,21.249,50.59c3.173,14.506,7.754,28.684,10.236,43.337
		c3.83,18.941,5.654,38.262,10.426,57.004c2.282,11.783,4.409,23.609,5.879,35.522c1.072,7.651,2.879,15.172,3.994,22.823
		c1.366,9.942,4.141,19.641,5.17,29.643c1.513,8.213,1.703,16.572,2.732,24.845c0.726,6.717,0.32,13.486,0.406,20.238h-31.295
		c-0.622-9.717-2.455-19.295-2.749-29.03c-2.04-20.583-1.945-41.331-4.582-61.854c-0.588-9.06,0.294-18.154-0.657-27.188
		c-0.692-6.475-0.156-13.019-1.228-19.442c-0.64-4.003-0.882-8.04-1.046-12.077c-0.873-21.56-5.922-42.628-9.553-63.834
		c-1.349-7.443-3.648-14.696-4.582-22.217c-1.487-8.291-3.432-16.495-5.533-24.647c-3-9.985-4.807-20.333-8.999-29.929
		C282.417,1376.82,278.129,1369.627,276.85,1361.518z"/>
	<path fill="#6B6F72" stroke="#6B6F72" d="M566.523,1401.466c-0.277-1.081,0.337-1.928,1.184-2.473
		c5.135,19.633,11.256,39.049,14.627,59.097c1.539,9.803,2.118,19.719,3.371,29.565c0.372,2.974,0.484,5.982,0.458,8.991
		c0,11.325,2.965,22.615,1.15,33.923c-0.813,5.835,0.207,11.748-0.657,17.592c-2.472,17.359-4.314,34.804-6.553,52.207
		c-0.579,3.726-1.686,7.383-3.467,10.728c-1.867-1.271-1.677-3.553-1.798-5.516c-0.216-7.244-1.954-14.368-1.677-21.63
		c-0.571-11.238-2.118-22.433-1.712-33.698c-0.207-11.818,0.683-23.678-0.83-35.427c-0.06-22.477,0.009-44.971-0.009-67.456
		c0.216-5.498-0.277-10.979-1.046-16.408c-0.769-5.204-0.484-10.504-1.349-15.682
		C567.509,1410.69,566.921,1406.083,566.523,1401.466z"/>
	<path fill="#6B6F72" stroke="#6B6F72" d="M120.818,1403.048c2.118-0.579,4.054,0.709,6,1.366c7.677,2.628,14.662,6.847,22.235,9.76
		c9.786,5.533,18.993,12.06,28.2,18.509c4.884,3.224,10.408,5.472,14.878,9.328c3.994,3.51,8.567,6.345,12.163,10.305
		c6.596,6.665,13.227,13.296,19.892,19.892c3.181,3.155,5.714,6.916,9.051,9.95c4.988,4.469,8.169,10.469,11.437,16.218
		c4.66,9.25,9.406,18.457,13.564,27.949c3.994,7.288,5.982,15.397,8.8,23.16c2.602,7.599,3.25,15.656,5.152,23.436
		c0.346,2.291,1.452,4.807,0.303,7.063c-2.68-2.55-4.175-5.974-6.198-8.991c-3.493-5.187-6.527-10.659-10.244-15.682
		c-3.441-4.634-6.985-9.198-10.244-13.953c-2.507-3.683-4.124-7.884-6.544-11.601c-4.288-6.553-9.302-12.57-14.325-18.543
		c-3.181-4.807-7.677-8.455-11.524-12.673c-6.786-7.452-11.247-16.771-18.777-23.574c-2.68-2.274-4.175-5.611-6.968-7.763
		c-3.354-2.68-6.216-5.887-9.181-8.965c-7.089-6.734-13.598-14.082-21.068-20.419c-7.296-6.527-14.601-13.045-21.578-19.909
		C131.365,1412.419,124.951,1408.866,120.818,1403.048z"/>
	<path fill="#6B6F72" stroke="#6B6F72" d="M0.041,1428.248c9.311,5.066,18.656,10.08,27.75,15.526
		c5.394,3.25,11.454,5.507,16.14,9.829c4.322,4.037,9.077,7.616,13.114,11.965c6.631,7.305,15.405,12.172,22.235,19.278
		c6.121,5.135,10.702,11.783,16.823,16.901c5.827,5.714,10.642,12.371,16.52,18.033c5.49,5.196,10.478,10.901,15.172,16.814
		c8.792,10.867,17.359,21.923,25.537,33.257c4.677,6.293,9.777,12.284,13.849,19.001c4.253,6.881,9.691,12.933,13.806,19.909
		c4.262,7.132,9.604,13.547,13.944,20.635c4.487,7.815,8.965,15.665,12.284,24.059c3.562,6.89,6.847,13.91,9.336,21.275h-16.728
		c-2.317-5.671-4.703-11.307-7.573-16.719c-2.127-4.478-3.821-9.189-6.561-13.339c-2.758-4.245-4.599-9.025-7.651-13.062
		c-4.201-5.697-8.256-11.506-11.835-17.618c-5.083-7.798-11.031-15.016-15.915-22.944c-6.622-9.665-14.126-18.69-21.586-27.698
		c-4.737-7.737-10.754-14.541-16.469-21.552c-3.942-4.426-7.417-9.267-11.688-13.391c-5.524-5.161-9.968-11.333-15.561-16.425
		c-6.181-5.645-11.264-12.362-17.687-17.757c-5.144-5.317-11.463-9.25-16.84-14.29c-11.368-11.178-24.232-20.679-35.911-31.502
		c-5.118-4.219-9.924-8.792-14.506-13.573V1428.248z"/>
	<path fill="#74787B" stroke="#74787B" d="M0.041,1434.861c4.582,4.781,9.388,9.354,14.506,13.573
		c11.679,10.823,24.543,20.324,35.911,31.502c5.377,5.04,11.697,8.974,16.84,14.29c6.423,5.394,11.506,12.111,17.687,17.757
		c5.593,5.092,10.037,11.264,15.561,16.425c4.271,4.124,7.746,8.965,11.688,13.391c5.714,7.011,11.731,13.814,16.469,21.552
		c7.461,9.008,14.964,18.033,21.586,27.698c4.884,7.927,10.832,15.146,15.915,22.944c3.579,6.112,7.633,11.921,11.835,17.618
		c3.052,4.037,4.893,8.818,7.651,13.062c2.74,4.15,4.435,8.861,6.561,13.339c2.87,5.412,5.256,11.048,7.573,16.719h-51.515
		c-6.466-5.853-13.451-11.048-20.307-16.417c-3.544-2.568-5.005-6.812-6.579-10.694c-3.086-7.858-7.763-15.025-13.149-21.483
		c-4.928-5.369-10.789-10.408-17.999-12.276c-5.749-1.582-11.766-1.357-17.618-2.256c-8.022-1.279-16.157-0.873-24.24-0.865
		c-3.38-0.035-6.743,0.501-9.916,1.686c5.455,4.478,12.181,6.994,17.843,11.186c8.645,6.423,17.428,12.665,26.514,18.448
		c12.622,8.87,23.48,20.125,32.41,32.669H0.041V1434.861z"/>
	<path fill="#6C7073" stroke="#6C7073" d="M1329.85,1455.203c0.164-1.997,1.098-3.786,1.98-5.533
		c2.559,7.867,6.138,15.379,8.282,23.384c-2.559,6.536-2.274,13.65-3.181,20.506c-1.15,9.544-2.758,19.045-3.371,28.658
		c-1.271,8.455-1.107,17.091-3.078,25.442c-1.634,10.132-3.432,20.238-5.04,30.378c-1.037,6.622-3.614,12.898-4.66,19.52
		c-0.744,5.239-0.692,11.169-4.867,15.085c-0.251-4.945,0.519-9.838,1.029-14.731c1.15-14.498,4.02-28.805,4.833-43.337
		c1.124-8.126,0.337-16.451,2.36-24.448c1.971-8.723,0.986-17.722,1.202-26.566c-0.579-9.665,1.496-19.174,3.104-28.632
		C1329.167,1468.369,1329.262,1461.764,1329.85,1455.203z"/>
	<path fill="#6B6F72" stroke="#6B6F72" d="M136.448,1476.815c4.677,2.689,8.507,6.561,12.725,9.881
		c7.374,6.207,15.725,11.247,22.65,17.964c5.896,7.08,11.645,14.29,17.515,21.396c9.077,11.999,17.955,24.145,26.799,36.317
		c2.057,3.026,3.441,6.432,4.893,9.777c4.504,10.53,9.328,20.929,13.227,31.701c2.248,6.838,5.247,13.4,7.469,20.246
		c2.836,8.558,5.991,16.996,9.06,25.476c2.905,8.411,6.683,16.52,8.956,25.157h-15.639c-1.634-8.723-4.08-17.281-5.256-26.073
		c-1.115-7.815-4.461-15.042-6.994-22.442c-2.161-6.328-4.729-12.5-7.27-18.673c-3.017-8.351-7.91-15.812-11.567-23.877
		c-11.161-20.082-22.598-40.156-36.87-58.241c-5.412-7.746-11.722-14.774-17.765-22.01c-5.377-6.155-12.189-10.858-17.515-17.056
		C138.307,1483.783,136.405,1480.532,136.448,1476.815z"/>
	<path fill="#6B6F72" stroke="#6B6F72" d="M38.502,1612.428c3.173-1.184,6.536-1.72,9.916-1.686
		c8.083-0.009,16.218-0.415,24.24,0.865c5.853,0.899,11.869,0.674,17.618,2.256c7.21,1.867,13.071,6.907,17.999,12.276
		c5.386,6.458,10.063,13.624,13.149,21.483c1.573,3.881,3.034,8.126,6.579,10.694c6.855,5.368,13.84,10.564,20.307,16.417h-33.041
		c-8.93-12.544-19.788-23.799-32.41-32.669c-9.086-5.783-17.869-12.025-26.514-18.448
		C50.682,1619.421,43.957,1616.906,38.502,1612.428z"/>
	<path fill="#AAABAF" stroke="#AAABAF" d="M375.592,1674.731c3.527-1.089,7.072-2.109,10.728-2.645
		c-0.553,0.873-1.107,1.755-1.686,2.645H375.592z"/>
</g>
</svg>
